<svg xmlns="http://www.w3.org/2000/svg" width="1280" height="330.323" viewBox="0 0 1280 330.323">
  <path id="Path_13410" data-name="Path 13410" d="M2345.828,741.687a66.182,66.182,0,0,0-1.1-11.36l-1.1-6.49q-.922-3.293-1.905-6.8c-1.16-4.752-3.358-9.405-5.36-14.371-2.542-4.668-4.847-9.777-8.21-14.315-3.02-4.795-6.837-9.085-10.541-13.525-4.124-4.014-8.177-8.172-12.771-11.566-4.32-3.752-9.3-6.442-13.871-9.389-4.882-2.4-9.5-5.027-14.271-6.571q-3.526-1.281-6.845-2.492-3.424-.854-6.607-1.652a73.014,73.014,0,0,0-12.212-2.108q-2.818-.312-5.273-.582l-3.59-.064c-4.324-.049-6.8.021-6.8.024a17,17,0,0,0-1.709,33.856s2.457.32,6.76.708q1.606.138,3.552.306c.936.214,1.957.441,3.047.687a73.394,73.394,0,0,1,7.6,1.775c1.47.392,3,.807,4.577,1.232,1.539.568,3.122,1.155,4.76,1.757,3.355.985,6.508,2.948,10.05,4.36,1.373.836,2.8,1.639,4.238,2.465-3.438,2.9-7.493,6.31-12.2,10.274q-4.046,3.4-8.687,7.295-4.648,3.576-9.861,7.6-10.389,8.006-22.936,17.679-13.046,9.2-28.163,19.869c-20.364,13.769-43.842,28.442-70.046,43.266-13.109,7.393-27.245,14.237-41.6,21.709q-11.026,5.087-22.419,10.351c-7.558,3.575-15.242,7.152-23.276,10.231q-11.943,4.854-24.188,9.831c-8.216,3.171-16.717,5.927-25.192,8.963-16.88,6.313-34.67,11.131-52.48,16.781a997.115,997.115,0,0,1-112.736,23.364A917.439,917.439,0,0,1,1706,902.96a906.39,906.39,0,0,1-118.455-8.133A975.976,975.976,0,0,1,1474.784,871.5c-17.806-5.672-35.619-10.445-52.5-16.743-8.479-3.047-16.978-5.8-25.192-8.971q-12.25-4.985-24.192-9.844c-8.036-3.082-15.72-6.663-23.268-10.238q-11.4-5.254-22.437-10.335c-14.356-7.477-28.483-14.329-41.592-21.73-26.2-14.84-49.7-29.492-70.044-43.29q-15.077-10.641-28.16-19.881c-8.434-6.523-16.187-12.517-23.187-17.934l-9.95-7.7-8.509-7.127c-4.642-3.907-8.643-7.267-12.023-10.117,1.448-.825,2.883-1.634,4.267-2.474,3.542-1.412,6.688-3.375,10.045-4.36l4.758-1.757c1.583-.426,3.109-.841,4.573-1.232a73.891,73.891,0,0,1,7.6-1.775c1.094-.245,2.109-.472,3.053-.687q1.942-.169,3.548-.306c4.308-.388,6.763-.708,6.763-.708a17,17,0,0,0-1.709-33.856s-2.473-.073-6.8-.024l-3.6.064c-1.626.178-3.391.374-5.275.582a73.1,73.1,0,0,0-12.206,2.108l-6.6,1.652-6.852,2.492c-4.772,1.544-9.385,4.169-14.266,6.571-4.579,2.947-9.55,5.637-13.877,9.389-4.588,3.394-8.641,7.552-12.765,11.566-3.7,4.44-7.529,8.73-10.547,13.525-3.364,4.538-5.663,9.647-8.206,14.315-2,4.966-4.194,9.619-5.356,14.371q-.979,3.5-1.906,6.8-.575,3.363-1.112,6.49a67.229,67.229,0,0,0-1.1,11.36,55.993,55.993,0,0,0,.008,8.721c.3,4.819.578,7.515.578,7.515a10.181,10.181,0,0,0,20.031,1.3l.307-1.3s.534-2.232,1.257-6.042a39.461,39.461,0,0,1,1.647-6.751,74.321,74.321,0,0,1,2.784-8.443q.861-2.257,1.783-4.693,1.134-2.329,2.338-4.812c1.371-3.379,3.763-6.487,5.568-9.942,1.294-1.717,2.527-3.5,3.825-5.261l.665.715c3.4,3.629,7.591,8.11,12.518,13.375q3.722,3.941,7.991,8.462l9.567,9.059q10.156,9.591,22.427,21.174,12.868,10.878,27.781,23.47c9.94,8.393,21.251,16.361,32.814,25.3,5.735,4.554,11.974,8.695,18.367,12.932q9.572,6.408,19.581,13.106c13.442,8.764,27.993,17.04,42.849,26q11.5,6.069,23.382,12.337c7.914,4.2,15.986,8.407,24.428,12.123q12.564,5.8,25.474,11.751c8.664,3.814,17.632,7.218,26.609,10.9,17.823,7.739,36.9,13.267,55.941,19.922,38.659,11.49,79.208,21.705,121.166,28.121A971.567,971.567,0,0,0,1706,970.712a960.857,960.857,0,0,0,128.148-9.944c41.983-6.324,82.528-16.595,121.187-28.074,38.388-12.427,74.864-26.36,108.045-42.568,8.438-3.715,16.51-7.926,24.424-12.131q11.884-6.256,23.4-12.313c14.857-8.966,29.4-17.25,42.845-26.022q10-6.706,19.573-13.117c6.381-4.255,12.647-8.363,18.38-12.923,11.557-8.954,22.87-16.927,32.8-25.331q14.872-12.564,27.777-23.476,12.381-11.7,22.68-21.431,5.114-4.847,9.66-9.167,4.176-4.429,7.8-8.3c4.81-5.167,8.9-9.556,12.22-13.117l.766-.823c1.294,1.758,2.527,3.544,3.82,5.261,1.814,3.455,4.2,6.563,5.573,9.942q1.2,2.478,2.34,4.812c.611,1.623,1.208,3.189,1.777,4.693A74.64,74.64,0,0,1,2322,745.13a39.437,39.437,0,0,1,1.647,6.751c.727,3.81,1.257,6.042,1.257,6.042l.313,1.314a10.183,10.183,0,0,0,20.029-1.314s.283-2.7.576-7.515A54.8,54.8,0,0,0,2345.828,741.687Z" transform="translate(-1065.997 -640.389)" fill="#171717" opacity="0.84"/>
</svg>
