<svg xmlns="http://www.w3.org/2000/svg" width="25.069" height="25.07" viewBox="0 0 25.069 25.07">
  <g id="Group_52135" data-name="Group 52135" transform="translate(-0.001)">
    <path id="Path_12956" data-name="Path 12956" d="M67.045,261.756l-6.476,6.476H58.491l-1.039-1.039v-2.078l6.476-6.476h2.077l1.039,1.039Zm0,0" transform="translate(-54.638 -245.976)" fill="#007a9f"/>
    <path id="Path_12958" data-name="Path 12958" d="M199.59,91.375a5.112,5.112,0,0,0-6.481-.644A5.06,5.06,0,0,0,190.9,95.81a2.119,2.119,0,0,1-.634,1.776l-.54.54,3.116,3.116.54-.54a2.251,2.251,0,0,1,1.915-.617,5.052,5.052,0,0,0,4.3-1.439,5.138,5.138,0,0,0,0-7.271Zm0,0" transform="translate(-180.432 -85.462)" fill="#ffe477"/>
    <path id="Path_12960" data-name="Path 12960" d="M175.974,55.009l-1.039-1.039a.734.734,0,0,1,1.039-1.039l1.039,1.039a.734.734,0,1,1-1.039,1.039Zm0,0" transform="translate(-166.163 -50.135)" fill="#e4e4e7"/>
    <path id="Path_12961" data-name="Path 12961" d="M409.318,288.356l-1.039-1.039a.734.734,0,0,1,1.039-1.039l1.039,1.039a.734.734,0,1,1-1.039,1.039Zm0,0" transform="translate(-388.082 -272.057)" fill="#e4e4e7"/>
    <path id="Path_12962" data-name="Path 12962" d="M122,180.738a.734.734,0,0,1,.734-.734H124.2a.734.734,0,1,1,0,1.469h-1.469A.734.734,0,0,1,122,180.738Zm0,0" transform="translate(-116.025 -171.19)" fill="#e4e4e7"/>
    <path id="Path_12963" data-name="Path 12963" d="M452.008,180.738a.734.734,0,0,1,.734-.734h1.469a.734.734,0,0,1,0,1.469h-1.469A.734.734,0,0,1,452.008,180.738Zm0,0" transform="translate(-429.875 -171.19)" fill="#e4e4e7"/>
    <path id="Path_12964" data-name="Path 12964" d="M302,332.211v-1.469a.734.734,0,0,1,1.469,0v1.469a.734.734,0,1,1-1.469,0Zm0,0" transform="translate(-287.215 -313.849)" fill="#e4e4e7"/>
    <path id="Path_12965" data-name="Path 12965" d="M302,2.2V.734a.734.734,0,0,1,1.469,0V2.2A.734.734,0,0,1,302,2.2Zm0,0" transform="translate(-287.215 0)" fill="#e4e4e7"/>
    <path id="Path_12966" data-name="Path 12966" d="M410.3,53.917l-1.039,1.039a.734.734,0,0,1-1.039-1.039l1.039-1.039a.734.734,0,1,1,1.039,1.039Zm0,0" transform="translate(-388.028 -50.082)" fill="#e4e4e7"/>
    <path id="Path_12967" data-name="Path 12967" d="M263.369,162.461h-1.776l-.821.834a.734.734,0,1,1-1.039-1.039l.785-.821V159.66a.749.749,0,0,1,.773-.727.725.725,0,0,1,.745.727v1.333h1.332a.725.725,0,0,1,.727.745A.707.707,0,0,1,263.369,162.461Zm0,0" transform="translate(-246.808 -151.151)" fill="#ffb655"/>
    <path id="Path_12968" data-name="Path 12968" d="M267.6,202.465h-1.776l-.821.834a.727.727,0,0,1-1.039,0l2.3-2.3H267.6a.725.725,0,0,1,.727.745A.707.707,0,0,1,267.6,202.465Zm0,0" transform="translate(-251.043 -191.154)" fill="#ff9100"/>
    <path id="Path_12970" data-name="Path 12970" d="M5.931,394.022l-.519.519a.659.659,0,0,1-.2.135l-4.155,2.077a.714.714,0,0,1-.841-.135.714.714,0,0,1-.135-.841l2.077-4.155a.662.662,0,0,1,.135-.2l.519-.519Zm0,0" transform="translate(0 -371.766)" fill="#ffcebf"/>
  </g>
</svg>
