<svg xmlns="http://www.w3.org/2000/svg" width="36.99" height="37.365" viewBox="0 0 36.99 37.365">
  <g id="Group_52013" data-name="Group 52013" transform="translate(0.131 0.637)">
    <path id="Path_13181" data-name="Path 13181" d="M34.732,18.045l1.5-2.567L34.07,13.434l.708-2.887L32.13,9.2,32,6.232,29.078,5.68l-.959-2.811-2.957.288L23.449.728,20.693,1.843,18.364,0,16.034,1.843,13.279.728,11.566,3.157,8.609,2.869,7.65,5.68l-2.918.552L4.6,9.2,1.95,10.547l.708,2.887L.5,15.478,2,18.045.5,20.612l2.158,2.044L1.95,25.543,4.6,26.891l.134,2.967,2.918.552.959,2.811,2.957-.288,1.713,2.429,2.755-1.115,2.329,1.843,2.329-1.843,2.755,1.115,1.713-2.429,2.957.288.959-2.811L32,29.858l.134-2.967,2.648-1.348-.708-2.887,2.158-2.044Zm-1.178,2.184-1.833,1.737.6,2.452-2.251,1.147-.114,2.525-2.484.47-.816,2.392-2.514-.245L22.686,32.77l-2.341-.947-1.982,1.568-1.982-1.568-2.341.947-1.456-2.063-2.514.245-.816-2.392-2.484-.47-.114-2.525L4.406,24.418l.6-2.452L3.174,20.229l1.272-2.184L3.174,15.861l1.834-1.737-.6-2.452,2.251-1.147L6.771,8l2.484-.47.816-2.392,2.514.245,1.455-2.063,2.341.947L18.364,2.7l1.982,1.568,2.341-.947,1.455,2.063,2.514-.245.816,2.392L29.957,8l.114,2.525,2.251,1.146-.6,2.452,1.833,1.737-1.272,2.184Zm0,0" fill="#171717" stroke="#fff" stroke-width="1"/>
    <path id="Path_13182" data-name="Path 13182" d="M83.382,72.523A12.933,12.933,0,1,0,96.315,85.456,12.947,12.947,0,0,0,83.382,72.523Zm0,23.749A10.816,10.816,0,1,1,94.2,85.456,10.828,10.828,0,0,1,83.382,96.273Zm0,0" transform="translate(-65.018 -67.411)" fill="#171717" stroke="#fff" stroke-width="1"/>
    <path id="Path_13183" data-name="Path 13183" d="M142.044,229.006c0-.135.123-.247.51-.247a2.422,2.422,0,0,1,1.094.292l.4-.959a3.114,3.114,0,0,0-1.481-.342c-1.217,0-1.829.594-1.829,1.324,0,1.464,2.171,1.066,2.171,1.559,0,.135-.135.213-.51.213a2.7,2.7,0,0,1-1.3-.359l-.426.965a3.518,3.518,0,0,0,1.711.4c1.217,0,1.829-.606,1.829-1.324C144.215,229.085,142.044,229.478,142.044,229.006Zm0,0" transform="translate(-130.295 -211.696)" fill="#171717" stroke="#fff" stroke-width="0.5"/>
    <path id="Path_13184" data-name="Path 13184" d="M196.442,227.75a2.059,2.059,0,1,0,2.215,2.053A2.072,2.072,0,0,0,196.442,227.75Zm0,3.035a.987.987,0,1,1,.881-.982A.893.893,0,0,1,196.442,230.785Zm0,0" transform="translate(-180.071 -211.696)" fill="#171717" stroke="#fff" stroke-width="0.5"/>
    <path id="Path_13185" data-name="Path 13185" d="M265.257,229.023h-1.324v3.926h3.1v-1.026h-1.772Zm0,0" transform="translate(-244.864 -212.879)" fill="#171717" stroke="#fff" stroke-width="0.5"/>
    <path id="Path_13186" data-name="Path 13186" d="M313.027,229.023v3.926h1.935a1.978,1.978,0,1,0,0-3.926Zm2.816,1.963a.865.865,0,0,1-.937.931h-.555v-1.862h.555A.864.864,0,0,1,315.843,230.986Zm0,0" transform="translate(-290.497 -212.879)" fill="#171717" stroke="#fff" stroke-width="0.5"/>
  </g>
</svg>
