<svg xmlns="http://www.w3.org/2000/svg" width="40.041" height="29.184" viewBox="0 0 40.041 29.184">
  <path id="Path_13190" data-name="Path 13190" d="M32.535,79.455a1.209,1.209,0,0,0-.908-.41H25.081v-1.91a1.209,1.209,0,0,0-1.209-1.209h-8.1A8.439,8.439,0,1,0,3.754,87.111v8.054a1.209,1.209,0,0,0,1.209,1.209H7.593a4.336,4.336,0,0,0,8.329,0H26.81a4.336,4.336,0,0,0,8.329,0h2.326a1.209,1.209,0,0,0,1.209-1.209V86.889a1.209,1.209,0,0,0-.3-.8Zm-30.122.638a6.023,6.023,0,1,1,6.023,6.023A6.023,6.023,0,0,1,2.413,80.092Zm9.345,16.992a1.92,1.92,0,1,1,1.92-1.92,1.92,1.92,0,0,1-1.92,1.92Zm10.906-3.128H15.922a4.336,4.336,0,0,0-8.329,0H6.171V88.223a8.442,8.442,0,0,0,10.523-9.88h5.97ZM34.792,85.68H29.128V81.461h1.953Zm-3.818,11.4a1.92,1.92,0,1,1,1.92-1.92A1.92,1.92,0,0,1,30.974,97.084Zm4.164-3.128a4.336,4.336,0,0,0-8.329,0H25.081V81.461h1.63v5.428A1.209,1.209,0,0,0,27.92,88.1h8.336v5.858ZM4.317,80.217A1.209,1.209,0,1,1,6.238,78.75l1.115,1.46,3.466-2.9a1.209,1.209,0,1,1,1.552,1.854L7.936,82.875A1.209,1.209,0,0,1,6.2,82.682Z" transform="translate(0.718 -70.967)" fill="#171717" stroke="#fff" stroke-width="1.3"/>
</svg>
