<svg xmlns="http://www.w3.org/2000/svg" width="28.851" height="28.803" viewBox="0 0 28.851 28.803">
  <g id="Group_52016" data-name="Group 52016" transform="translate(-145.452 -97.504)">
    <g id="Group_52015" data-name="Group 52015" transform="translate(145.952 97.98)">
      <path id="Path_13187" data-name="Path 13187" d="M168.858,88.241h1.988a2.981,2.981,0,0,1,2.982,2.98v19.9a2.981,2.981,0,0,1-2.982,2.98h-16.9a2.981,2.981,0,0,1-2.982-2.98v-.994h-2.035a2.98,2.98,0,0,1-2.769-4.086l4.376-10.96a2.978,2.978,0,0,1,.428-.741V91.222a2.981,2.981,0,0,1,2.982-2.98h1.988v-.994a.994.994,0,0,1,1.988,0v.994h8.945v-.994a.994.994,0,0,1,1.988,0Zm-12.92,1.987H153.95a.994.994,0,0,0-.994.993v2.008a3.051,3.051,0,0,1,.353-.021h18.53V91.221a.994.994,0,0,0-.994-.993h-1.988v.993a.994.994,0,1,1-1.988,0v-.993h-8.945v.993a.994.994,0,1,1-1.988,0Zm-3.552,5.592-4.376,10.961a.993.993,0,0,0,.923,1.361h16.59a1,1,0,0,0,.923-.625L171.366,95.2H153.309a.984.984,0,0,0-.353.065,1,1,0,0,0-.57.56Zm.57,14.309v.994a.994.994,0,0,0,.994.993h16.9a.994.994,0,0,0,.994-.993V99.371l-3.547,8.883a2.981,2.981,0,0,1-2.769,1.876Z" transform="translate(-145.952 -86.254)" fill="#171717" stroke="#fff" stroke-width="0.952" fill-rule="evenodd"/>
    </g>
  </g>
</svg>
