<svg xmlns="http://www.w3.org/2000/svg" width="21.161" height="19.838" viewBox="0 0 21.161 19.838">
  <path id="Path_4" data-name="Path 4" d="M20.7,5.538a1.563,1.563,0,0,0-1.1-.452h0L4.98,5.1,4.309,2.49c0-.008,0-.016-.006-.023C4.012,1.494,3.53.5,2.165.5H.619a.62.62,0,0,0,0,1.24H2.165c.377,0,.647.075.946,1.07L5.752,13.088l0,.014c.333,1.177,1.067,1.852,2.015,1.852H9.033v.669a2.42,2.42,0,1,0,1.24,0v-.669h6.6v.669a2.42,2.42,0,1,0,1.24,0v-.669h.894a2.142,2.142,0,0,0,2.149-2.13V6.641a1.538,1.538,0,0,0-.462-1.1Zm-9.865,12.4a1.18,1.18,0,1,1-1.18-1.158A1.17,1.17,0,0,1,10.833,17.941Zm7.844,0a1.18,1.18,0,1,1-1.18-1.158A1.17,1.17,0,0,1,18.677,17.941Zm1.243-5.117a.9.9,0,0,1-.91.89H7.771c-.455,0-.7-.511-.82-.942L5.3,6.338l14.295-.012h0a.331.331,0,0,1,.234.095.309.309,0,0,1,.093.22Zm0,0" transform="translate(0.001 -0.5)" fill="#171717"/>
</svg>
