<svg xmlns="http://www.w3.org/2000/svg" width="17.458" height="20.047" viewBox="0 0 17.458 20.047">
  <g id="Group_52383" data-name="Group 52383" transform="translate(-33.062)">
    <g id="Group_52380" data-name="Group 52380" transform="translate(33.062)">
      <g id="Group_52379" data-name="Group 52379" transform="translate(0)">
        <path id="Path_13376" data-name="Path 13376" d="M50.441,5.533l-.015-.026a.946.946,0,0,0-.071-.122L47.566.563A1.131,1.131,0,0,0,46.59,0h-9.6a1.131,1.131,0,0,0-.977.564L33.181,5.482a.588.588,0,0,0-.057.138.993.993,0,0,0-.062.346v12.7a1.383,1.383,0,0,0,1.382,1.382H49.138a1.383,1.383,0,0,0,1.382-1.382V5.919c0-.017,0-.034,0-.051A.585.585,0,0,0,50.441,5.533ZM42.4,1.175h4.164l2.194,3.793H42.4Zm-5.379,0h4.2V4.968h-6.39Zm12.325,17.49a.207.207,0,0,1-.206.206H34.444a.207.207,0,0,1-.207-.206V6.143H49.345Z" transform="translate(-33.062)" fill="#fff"/>
      </g>
    </g>
    <g id="Group_52382" data-name="Group 52382" transform="translate(38.992 10.401)">
      <g id="Group_52381" data-name="Group 52381" transform="translate(0)">
        <path id="Path_13377" data-name="Path 13377" d="M189.978,265.8a.588.588,0,0,0-.831,0l-2.623,2.623-1.009-1.009a.588.588,0,0,0-.831.831l1.424,1.424a.587.587,0,0,0,.831,0l3.039-3.039A.588.588,0,0,0,189.978,265.8Z" transform="translate(-184.512 -265.632)" fill="#fff"/>
      </g>
    </g>
  </g>
</svg>
