<svg xmlns="http://www.w3.org/2000/svg" width="12.971" height="12.971" viewBox="0 0 12.971 12.971">
  <g id="Group_52006" data-name="Group 52006" transform="translate(0 -0.003)">
    <g id="Group_52001" data-name="Group 52001" transform="translate(0 0.003)">
      <g id="Group_52000" data-name="Group 52000">
        <path id="Path_13177" data-name="Path 13177" d="M12.574,1.233h-2.46a1.627,1.627,0,0,0-3.155,0H.4a.4.4,0,0,0,0,.794H6.959a1.627,1.627,0,0,0,3.155,0h2.46a.4.4,0,0,0,0-.794ZM8.537,2.462a.833.833,0,1,1,.833-.833A.834.834,0,0,1,8.537,2.462Z" transform="translate(0 -0.003)" fill="#404040"/>
      </g>
    </g>
    <g id="Group_52003" data-name="Group 52003" transform="translate(0 9.72)">
      <g id="Group_52002" data-name="Group 52002">
        <path id="Path_13178" data-name="Path 13178" d="M12.574,384.8h-2.46a1.627,1.627,0,0,0-3.155,0H.4a.4.4,0,0,0,0,.794H6.959a1.627,1.627,0,0,0,3.155,0h2.46a.4.4,0,0,0,0-.794Zm-4.037,1.23a.833.833,0,1,1,.833-.833A.834.834,0,0,1,8.537,386.029Z" transform="translate(0 -383.57)" fill="#404040"/>
      </g>
    </g>
    <g id="Group_52005" data-name="Group 52005" transform="translate(0 4.862)">
      <g id="Group_52004" data-name="Group 52004">
        <path id="Path_13179" data-name="Path 13179" d="M12.574,193.02H6.012a1.627,1.627,0,0,0-3.155,0H.4a.4.4,0,0,0,0,.794h2.46a1.627,1.627,0,0,0,3.155,0h6.562a.4.4,0,0,0,0-.794Zm-8.139,1.23a.833.833,0,1,1,.833-.833A.834.834,0,0,1,4.434,194.249Z" transform="translate(0 -191.79)" fill="#404040"/>
      </g>
    </g>
  </g>
</svg>
