<svg xmlns="http://www.w3.org/2000/svg" width="22" height="23" viewBox="0 0 22 23">
  <g id="Group_52235" data-name="Group 52235" transform="translate(-19369 -9262)">
    <rect id="Rectangle_92" data-name="Rectangle 92" width="22" height="23" rx="11" transform="translate(19369 9262)" fill="#171717"/>
    <g id="Group_137" data-name="Group 137" transform="translate(19373.303 9268.752)">
      <path id="Path_85" data-name="Path 85" d="M13.21,1.478A1.69,1.69,0,0,0,12.021.289,39.471,39.471,0,0,0,6.744,0,41.018,41.018,0,0,0,1.466.278a1.724,1.724,0,0,0-1.189,1.2A17.806,17.806,0,0,0,0,4.722,17.741,17.741,0,0,0,.278,7.966,1.69,1.69,0,0,0,1.467,9.155a39.553,39.553,0,0,0,5.277.289,41.018,41.018,0,0,0,5.277-.278A1.69,1.69,0,0,0,13.21,7.977a17.807,17.807,0,0,0,.278-3.244,16.9,16.9,0,0,0-.278-3.255Zm0,0" transform="translate(0 0)" fill="#fffceb"/>
      <path id="Path_86" data-name="Path 86" d="M204.969,106.528l3.511-2.022-3.511-2.022Zm0,0" transform="translate(-199.569 -99.785)" fill="#171717"/>
    </g>
  </g>
</svg>
