<svg xmlns="http://www.w3.org/2000/svg" width="23" height="23" viewBox="0 0 23 23">
  <g id="Group_52233" data-name="Group 52233" transform="translate(-19402 -9248)">
    <rect id="Rectangle_31992" data-name="Rectangle 31992" width="23" height="23" rx="11.5" transform="translate(19402 9248)" fill="#171717"/>
    <g id="Group_52232" data-name="Group 52232" transform="translate(19376.406 9252.477)">
      <path id="Path_13308" data-name="Path 13308" d="M41.871,3.369a3,3,0,0,1-1.812-.605A3,3,0,0,1,38.862.39H36.919V5.7l0,2.908a1.761,1.761,0,1,1-1.208-1.669V4.965a3.823,3.823,0,0,0-.56-.041,3.726,3.726,0,0,0-2.8,1.252,3.651,3.651,0,0,0,.165,5.034,3.789,3.789,0,0,0,.351.307,3.726,3.726,0,0,0,2.284.772,3.823,3.823,0,0,0,.56-.041,3.713,3.713,0,0,0,2.074-1.037,3.637,3.637,0,0,0,1.091-2.589l-.01-4.342A4.923,4.923,0,0,0,41.877,5.3V3.369h-.006Z" transform="translate(0 1)" fill="#fffceb"/>
    </g>
  </g>
</svg>
