<svg xmlns="http://www.w3.org/2000/svg" width="20.046" height="20.046" viewBox="0 0 20.046 20.046">
  <g id="layer2" transform="translate(-0.265 -0.265)">
    <path id="path824" d="M10.288.265A10.023,10.023,0,1,0,20.311,10.288,10.033,10.033,0,0,0,10.288.265Zm0,1.336A8.689,8.689,0,1,1,1.6,10.288,8.681,8.681,0,0,1,10.288,1.6Zm-.009,3.345a.668.668,0,0,0-.656.676v.562a2.183,2.183,0,0,0-2,2.1,2.389,2.389,0,0,0,.882,1.9,5,5,0,0,0,1.578.735,4.382,4.382,0,0,1,1.18.518.874.874,0,0,1,.364.854c0,1.114-2.668,1.114-2.668,0a.668.668,0,1,0-1.337,0,2.187,2.187,0,0,0,2,2.1v.56a.668.668,0,1,0,1.337,0V14.4a2.187,2.187,0,0,0,2-2.1,2.39,2.39,0,0,0-.884-1.9A5,5,0,0,0,10.5,9.656a4.386,4.386,0,0,1-1.18-.517.874.874,0,0,1-.364-.854c0-1.114,2.668-1.114,2.668,0a.669.669,0,1,0,1.338,0,2.186,2.186,0,0,0-2-2.1V5.622a.668.668,0,0,0-.68-.676Z" transform="translate(0)" fill="#fff"/>
  </g>
</svg>
