<svg xmlns="http://www.w3.org/2000/svg" width="33" height="33.116" viewBox="0 0 33 33.116">
  <g id="Group_51860" data-name="Group 51860" transform="translate(-0.894)">
    <path id="Path_13162" data-name="Path 13162" d="M245.687,4.208a.651.651,0,0,0,.651-.651V.651a.651.651,0,1,0-1.3,0V3.557A.651.651,0,0,0,245.687,4.208Z" transform="translate(-228.351)" fill="#d2f4df"/>
    <path id="Path_13163" data-name="Path 13163" d="M33.259,99.218,32.108,98.07a2.181,2.181,0,0,0-2.581-.368l-2.168-2.166.106-.105a2.261,2.261,0,0,0,0-3.192,2.236,2.236,0,0,0-1.134-.613,2.275,2.275,0,0,0,.09-.634,2.256,2.256,0,0,0-1.794-2.209,2.275,2.275,0,0,0,.09-.634,2.254,2.254,0,0,0-1.794-2.208,2.254,2.254,0,0,0-2.409-2.877l-4.3-.813a2.321,2.321,0,0,0-1.99.265,1.176,1.176,0,0,0-.1.1,2.265,2.265,0,0,0-2.377.523,2.241,2.241,0,0,0-.66,1.6,2.278,2.278,0,0,0,.09.634,2.256,2.256,0,0,0-1.794,2.207,2.271,2.271,0,0,0,.09.636,2.259,2.259,0,0,0-1.4,3.486,2.257,2.257,0,0,0-.867,3.734l.105.1L5.145,97.7a2.178,2.178,0,0,0-2.464.427L1.529,99.277a2.176,2.176,0,0,0,0,3.073l1.437,1.435a.651.651,0,1,0,.921-.922L2.45,101.428a.873.873,0,0,1,0-1.229L3.6,99.051a.872.872,0,0,1,1.062-.13.657.657,0,0,0,.082.1.648.648,0,0,0,.187.13l6.6,6.594a.642.642,0,0,0,.314.317.872.872,0,0,1-.036,1.189l-1.15,1.149a.875.875,0,0,1-1.232,0l-1.437-1.437a.651.651,0,0,0-.921.921l1.438,1.438a2.181,2.181,0,0,0,3.072,0l1.151-1.15a2.178,2.178,0,0,0,.3-2.69l2.441-2.438.008-.008c.279-.289,1.058-.235,1.81-.183a9.369,9.369,0,0,0,1.713.011l2.673,2.67a2.177,2.177,0,0,0,.37,2.579l1.151,1.15a2.178,2.178,0,0,0,3.072,0l6.982-6.973a2.176,2.176,0,0,0,0-3.073ZM15.972,83.53l2.826.535-1.691,1.691a4.106,4.106,0,0,1-1.014-.737,3,3,0,0,1-.959-1.481h0a.569.569,0,0,1,0-.064,2.207,2.207,0,0,1,.841.057Zm-3.3.531a.961.961,0,0,1,1.216-.115,4.659,4.659,0,0,0,1.307,2.014,4.824,4.824,0,0,0,1.877,1.163.956.956,0,0,1-1.461,1.221h0L12.67,85.411a.959.959,0,0,1,0-1.35Zm-1.7,2.842a.961.961,0,0,1,1.354,0l2.365,2.361a.957.957,0,0,1-1.355,1.353h0l-1.795-1.794-.009-.008-.561-.561a.956.956,0,0,1,0-1.351ZM9.263,89.745a.964.964,0,0,1,1.349,0l1.8,1.8a.956.956,0,0,1-1.355,1.349l-.653-.652h0L9.263,91.1a.958.958,0,0,1,0-1.352ZM8.128,93.159a.963.963,0,0,1,1.355,0l.653.653a.956.956,0,0,1-1.355,1.349L8.7,95.079l0,0,0,0-.564-.562a.957.957,0,0,1,0-1.351Zm13.274,7.4a.651.651,0,0,0-.921,0l-.58.579c-.551.551-1.548.481-2.513.414-1.048-.073-2.131-.148-2.833.572l-2.4,2.4-6-5.991L8.28,96.413a2.259,2.259,0,0,0,3.438-1.926c0-.006,0-.011,0-.017h.017a2.253,2.253,0,0,0,2.258-2.255c0-.006,0-.011,0-.017h.017a2.251,2.251,0,0,0,2.258-2.273h.017a2.26,2.26,0,0,0,1.928-3.434l1.861-1.86a.956.956,0,0,1,.489-.261l.058-.009a.955.955,0,0,1,.811,1.62l-.567.564-.006.005-.653.652a.651.651,0,1,0,.921.922l.569-.568h0l.086-.086a.959.959,0,0,1,1.352,0,.956.956,0,0,1,0,1.35l-.57.571h0l-.653.65a.651.651,0,0,0,.919.923l.656-.653a.956.956,0,0,1,1.353,1.351L23.7,92.8a.651.651,0,1,0,.921.921l.557-.557.01-.009a.956.956,0,0,1,1.353,1.351l-.566.566h0l-.9.9A.651.651,0,0,0,26,96.9l.44-.439,2.107,2.1-6,5.992-2.15-2.147a2.562,2.562,0,0,0,.428-.344l.579-.578a.651.651,0,0,0,0-.921Zm10.936.807-6.982,6.973a.875.875,0,0,1-1.231,0l-1.151-1.15a.871.871,0,0,1,0-1.227l6.982-6.973a.875.875,0,0,1,1.232,0l1.151,1.147a.873.873,0,0,1,0,1.229Z" transform="translate(0 -76.84)" fill="#d2f4df"/>
    <path id="Path_13164" data-name="Path 13164" d="M84.288,6.226a.651.651,0,0,0,.92-.922L82.835,2.935a.651.651,0,1,0-.92.922Z" transform="translate(-75.601 -2.567)" fill="#d2f4df"/>
    <path id="Path_13165" data-name="Path 13165" d="M372.3,6.417a.65.65,0,0,0,.46-.19l2.372-2.369a.651.651,0,1,0-.921-.922L371.842,5.3a.651.651,0,0,0,.46,1.112Z" transform="translate(-346.777 -2.568)" fill="#d2f4df"/>
    <path id="Path_13166" data-name="Path 13166" d="M60.117,430.388a.651.651,0,0,0,.008.921l0,0a.651.651,0,1,0-.01-.923Z" transform="translate(-55.218 -402.369)" fill="#d2f4df"/>
    <path id="Path_13167" data-name="Path 13167" d="M333.162,333.421a.652.652,0,1,0-.293-1.233l0,0a.651.651,0,0,0,.3,1.231Z" transform="translate(-310.167 -310.637)" fill="#d2f4df"/>
  </g>
</svg>
