<svg xmlns="http://www.w3.org/2000/svg" width="13.837" height="13.758" viewBox="0 0 13.837 13.758">
  <g id="Group_51604" data-name="Group 51604" transform="translate(6.146 -0.026) rotate(45)">
    <g id="arrow-1-n_1_">
      <path id="Path_7689" data-name="Path 7689" d="M10.092,6.313A.829.829,0,0,1,9.5,6.064l-4.1-4.1-4.1,4.1A.829.829,0,0,1,.129,4.937L4.812.245a.829.829,0,0,1,1.172,0l0,0,4.683,4.692a.793.793,0,0,1-.58,1.376Z" transform="translate(0 0.037)" fill="#f2cc00"/>
      <path id="Path_7690" data-name="Path 7690" d="M.829,13.263A.829.829,0,0,1,0,12.434V.829a.829.829,0,1,1,1.658,0V12.434A.829.829,0,0,1,.829,13.263Z" transform="translate(4.572)" fill="#f2cc00"/>
    </g>
  </g>
</svg>
