<svg xmlns="http://www.w3.org/2000/svg" width="62.163" height="61" viewBox="0 0 62.163 61">
  <g id="kick-fund-bite-logo" transform="translate(-2327.087 -6861.344)">
    <g id="Group_52418" data-name="Group 52418" transform="translate(2327.087 6861.344)">
      <path id="Path_13380" data-name="Path 13380" d="M1442.674,338.765a1.653,1.653,0,0,0-1.953-.3q-8.815,3.369-17.636,6.722c-.172.066-.348.122-.572.2,0-.212,0-.342,0-.472a1.674,1.674,0,0,0-1.757-1.719,1.629,1.629,0,0,0-1.72,1.692c-.011.476-.02.954,0,1.429a.438.438,0,0,1-.355.5c-.774.267-1.544.545-2.312.828a1.75,1.75,0,1,0,1.215,3.275c.445-.158.889-.321,1.446-.522v.625c0,2.153-.072,4.309.029,6.457a2.319,2.319,0,0,1-1.381,2.368,11.346,11.346,0,0,1-1.436.629,2.146,2.146,0,0,1-.773.111c-.5-.011-.666-.2-.667-.7,0-1.2,0-2.4,0-3.6a13.812,13.812,0,0,0-.045-1.672,1.627,1.627,0,0,0-1.789-1.46,1.647,1.647,0,0,0-1.669,1.707c-.011,2.153-.021,4.306.005,6.458a2.474,2.474,0,0,0,1.054,2.266,4.674,4.674,0,0,0,3.3.719,13.75,13.75,0,0,0,6.025-2.965,2.3,2.3,0,0,0,.841-1.916c-.019-3.286,0-6.573-.015-9.86a.526.526,0,0,1,.4-.6c2.335-.867,4.66-1.761,6.987-2.646q6.02-2.288,12.041-4.573a1.758,1.758,0,0,0,1.182-1.025A1.818,1.818,0,0,0,1442.674,338.765Z" transform="translate(-1381.073 -317.292)" fill="#1a1818"/>
      <path id="Path_13381" data-name="Path 13381" d="M1172.207,170.063a1.7,1.7,0,0,0,2,1.188,1.567,1.567,0,0,0,1.412-1.565c.01-2.153,0-4.306.012-6.458a2.78,2.78,0,0,1,.18-.679l.224-.062a3.029,3.029,0,0,0,.31.447c1.436,1.446,2.857,2.909,4.336,4.31a3.177,3.177,0,0,0,1.445.748,5.1,5.1,0,0,0,3.031-.382,2.659,2.659,0,0,0,1.69-2.509c.064-1.624.01-3.253-.013-4.879a1.58,1.58,0,0,0-1.083-1.546,1.779,1.779,0,0,0-2.419,1.89c.064,1,.059,2,.062,3a1.608,1.608,0,0,1-.165.609c-.12.28-.328.383-.575.14-1.426-1.4-2.846-2.808-4.285-4.229.779-.779,1.5-1.492,2.216-2.218a1.544,1.544,0,0,0,.187-2.024,1.74,1.74,0,0,0-2.787-.3c-.76.739-1.51,1.488-2.329,2.294-.017-.171-.031-.246-.032-.32,0-1.233,0-2.465,0-3.7a2.129,2.129,0,0,0-.081-.628,1.7,1.7,0,0,0-2.026-1.067,1.6,1.6,0,0,0-1.352,1.674q-.006,7.888,0,15.777A2.033,2.033,0,0,0,1172.207,170.063Z" transform="translate(-1161.789 -146.553)" fill="#1a1818"/>
      <path id="Path_13382" data-name="Path 13382" d="M1271.813,494.541a7.49,7.49,0,0,0-3.672.958,1.439,1.439,0,0,0-.6.786,1.738,1.738,0,0,0,.549,1.83,1.679,1.679,0,0,0,1.772.43c.391-.118.761-.3,1.145-.442.646-.239.933-.1,1.06.57a4.346,4.346,0,0,1-.39,2.538,1.259,1.259,0,0,1-1.637.795,6.284,6.284,0,0,1-2.415-1.376.918.918,0,0,1-.367-.8c.019-1.314.011-2.629.007-3.943,0-1.626.014-3.253-.033-4.878a1.564,1.564,0,0,0-1.781-1.5,1.587,1.587,0,0,0-1.662,1.583q-.013,7.048,0,14.1a1.737,1.737,0,0,0,3.449.1c.026-.308.031-.618.048-.974a9.48,9.48,0,0,0,1.183.791,4.181,4.181,0,0,0,4.565-.62,6.793,6.793,0,0,0,2.2-7.059A3.614,3.614,0,0,0,1271.813,494.541Z" transform="translate(-1245.808 -455.968)" fill="#1a1818"/>
      <path id="Path_13383" data-name="Path 13383" d="M1480.7,100.679a1.576,1.576,0,0,0,1.859-1.4,26.171,26.171,0,0,0,.054-2.852,1,1,0,0,1,.584-1.017c.827.811,1.653,1.629,2.488,2.438a1.747,1.747,0,1,0,2.455-2.474c-.817-.827-1.63-1.659-2.485-2.53.663-.883,1.33-1.793,2.021-2.685a1.711,1.711,0,0,0-.259-2.488,1.624,1.624,0,0,0-2.428.27c-.457.559-.892,1.136-1.339,1.7-.307.389-.618.775-.927,1.162a24.931,24.931,0,0,1-.1-2.541,14.246,14.246,0,0,0-.063-1.571,1.481,1.481,0,0,0-1.286-1.3,1.689,1.689,0,0,0-2.156,1.8q0,5.839,0,11.678c0,.082,0,.164,0,.246A1.615,1.615,0,0,0,1480.7,100.679Z" transform="translate(-1443.271 -85.344)" fill="#1a1818"/>
      <path id="Path_13384" data-name="Path 13384" d="M1564.72,451.894a6.3,6.3,0,0,0-4.66.628,4.5,4.5,0,0,0-2.611,3.473,10.482,10.482,0,0,0-.129,2.4c.246,2.684,1.395,4.24,4.05,4.889a4.909,4.909,0,0,0,4.591-.9,1.892,1.892,0,0,0,.727-2.259,1.675,1.675,0,0,0-1.794-1.077,2.313,2.313,0,0,0-.818.541,2.265,2.265,0,0,1-2.205.461,1.65,1.65,0,0,1-1.063-1.512c-.218-1.26-.239-2.457.866-3.373a1.351,1.351,0,0,1,2.178.319c-.448.194-.888.386-1.331.575a1.576,1.576,0,0,0-1.007,2.094,1.668,1.668,0,0,0,2.085,1.156,23.069,23.069,0,0,0,2.738-1.195,1.838,1.838,0,0,0,.936-1.47,5.05,5.05,0,0,0-.756-3.382A2.917,2.917,0,0,0,1564.72,451.894Z" transform="translate(-1514.963 -421.287)" fill="#1a1818"/>
      <path id="Path_13385" data-name="Path 13385" d="M1367.661,177.134a4.3,4.3,0,0,0,3.9-4.6,1.646,1.646,0,0,0-1.63-1.48,1.5,1.5,0,0,0-1.6,1.162c-.082.315-.09.648-.15.97a1.168,1.168,0,0,1-.82.961c-.46.142-.774-.155-1.047-.482a2.8,2.8,0,0,1-.437-2.523c.287-1.392.857-1.659,2.145-1.043a1.619,1.619,0,0,0,2.11-.608,1.665,1.665,0,0,0-.255-2.307c-1.913-1.451-5.441-1.4-6.808,1.5a7.906,7.906,0,0,0-.773,3.424A4.682,4.682,0,0,0,1367.661,177.134Z" transform="translate(-1336.147 -159.536)" fill="#1a1818"/>
      <path id="Path_13386" data-name="Path 13386" d="M1079.06,354.642c1.493-.54,2.966-1.14,4.422-1.772a1.533,1.533,0,0,0,.8-1.875,1.743,1.743,0,0,0-1.782-1.368,2.517,2.517,0,0,0-.483.112c-1.371.541-2.744,1.079-4.1,1.646a1.737,1.737,0,0,0,1.147,3.257Z" transform="translate(-1074.44 -327.694)" fill="#1a1818"/>
      <path id="Path_13387" data-name="Path 13387" d="M1679.125,412.25c-1.442.536-2.869,1.116-4.286,1.719a1.524,1.524,0,0,0-.871,1.876,1.687,1.687,0,0,0,1.755,1.405,1.708,1.708,0,0,0,.429-.075c1.416-.56,2.837-1.11,4.237-1.707a1.739,1.739,0,0,0-1.265-3.218Z" transform="translate(-1621.901 -385.025)" fill="#1a1818"/>
      <path id="Path_13388" data-name="Path 13388" d="M1306.183,185.239a1.688,1.688,0,0,0,1.7-1.739,1.7,1.7,0,1,0-3.4,0A1.691,1.691,0,0,0,1306.183,185.239Z" transform="translate(-1283.132 -173.761)" fill="#1a1818"/>
      <path id="Path_13389" data-name="Path 13389" d="M1411.387,471.031a1.679,1.679,0,0,0,1.67,1.757,1.643,1.643,0,0,0,1.694-1.768,1.586,1.586,0,0,0-1.68-1.707A1.622,1.622,0,0,0,1411.387,471.031Z" transform="translate(-1381.165 -437.448)" fill="#1a1818"/>
      <path id="Path_13390" data-name="Path 13390" d="M1399.907,305.653a1.953,1.953,0,0,0-2.265-.624,1.714,1.714,0,0,0-1.013,1.84c.022,2.464.006,4.928.009,7.392a1.732,1.732,0,1,0,3.463.005c0-1.445,0-2.891,0-4.337a1.677,1.677,0,0,1,1.343-1.855c.518-.1.74.077.741.6,0,1.133-.006,2.267,0,3.4a1.56,1.56,0,0,0,1.2,1.595,1.717,1.717,0,0,0,2.3-1.783c.023-1.84.011-3.68,0-5.519a1.78,1.78,0,0,0-.741-1.579,3.115,3.115,0,0,0-2.261-.445A5.641,5.641,0,0,0,1399.907,305.653Z" transform="translate(-1367.631 -286.129)" fill="#e50019"/>
      <path id="Path_13391" data-name="Path 13391" d="M1283.992,341.757q0,2.882,0,5.763a1.52,1.52,0,0,1-.521,1.272.627.627,0,0,1-1.032-.2,1.5,1.5,0,0,1-.136-.657c-.012-1.609.007-3.218-.016-4.827a1.736,1.736,0,0,0-3.443-.092c-.024,2.019-.031,4.039.008,6.058a2.281,2.281,0,0,0,1.234,2.1,5.425,5.425,0,0,0,6.9-1.6,2.575,2.575,0,0,0,.51-1.56c0-1.018,0-2.036,0-3.054h0c0-1.1,0-2.2,0-3.3a2.251,2.251,0,0,0-.049-.341,1.527,1.527,0,0,0-1.3-1.354A1.689,1.689,0,0,0,1283.992,341.757Z" transform="translate(-1259.606 -318.797)" fill="#e50019"/>
      <path id="Path_13392" data-name="Path 13392" d="M1065.718,372.784a1.743,1.743,0,0,0-1.748-1.411,2.529,2.529,0,0,0-.485.1c-1.384.507-13.855,5.2-15.229,5.735a1.737,1.737,0,0,0,1.068,3.284c.707-.237,3.854-1.41,7.147-2.65.02,3.536,0,9.307,0,11.98,0,1.315-.006,2.629,0,3.944a1.531,1.531,0,0,0,1.009,1.537,1.731,1.731,0,0,0,2.465-1.647q.014-4.264,0-8.528c0-.062,0-.469,0-1.073,1.252-.425,2.063-.739,3.391-1.276a1.533,1.533,0,0,0,.847-1.854,1.743,1.743,0,0,0-1.746-1.414,2.524,2.524,0,0,0-.485.1c-.8.293-1.385.5-2,.734,0-1.988.009-3.834.013-3.811,0,0,0-.007,0-.01,2.391-.907,4.379-1.667,4.911-1.884A1.533,1.533,0,0,0,1065.718,372.784Z" transform="translate(-1047.212 -347.636)" fill="#e50019"/>
      <path id="Path_13393" data-name="Path 13393" d="M1519,116.558a7.274,7.274,0,0,0-.384,4.251,4.705,4.705,0,0,0,5.558,3.852,9.745,9.745,0,0,0,3.552-1.327,1.835,1.835,0,0,0,.811.308,1.687,1.687,0,0,0,1.953-1.114,1.723,1.723,0,0,0,.088-.427c0-1.523.012-3.046-.026-4.568,0-.059-.006-.116-.013-.172-.014-1.4.014-2.8.016-4.2,0-.877,0-5.037,0-5.212,0-1.725,0-3.45,0-5.175a1.569,1.569,0,0,0-1.075-1.689,1.715,1.715,0,0,0-2.4,1.671c0,5.372.008,10.744-.017,16.116a2.341,2.341,0,0,1-.376,1.233,3.527,3.527,0,0,1-2.625,1.555,1.636,1.636,0,0,1-1.9-1.328,5.017,5.017,0,0,1,.061-1.7c.247-1.13.746-1.292,1.78-.791a2.318,2.318,0,0,0,1.3.226,1.572,1.572,0,0,0,1.242-1.479,1.635,1.635,0,0,0-.791-1.73,6,6,0,0,0-1.285-.607A4.175,4.175,0,0,0,1519,116.558Z" transform="translate(-1479.352 -99.659)" fill="#e50019"/>
    </g>
    <path id="Path_13409" data-name="Path 13409" d="M1123.871,644.969a2.994,2.994,0,0,0-.05-.514l-.05-.293-.086-.307a4.966,4.966,0,0,0-.242-.65,5.272,5.272,0,0,0-.371-.647,5.856,5.856,0,0,0-.477-.612,5.777,5.777,0,0,0-.578-.523,5.231,5.231,0,0,0-.627-.425,5.068,5.068,0,0,0-.645-.3l-.31-.113-.3-.075a3.306,3.306,0,0,0-.552-.1l-.238-.026-.162,0c-.2,0-.307,0-.307,0a.769.769,0,0,0-.077,1.531s.111.014.306.032l.161.014.138.031a3.322,3.322,0,0,1,.344.08l.207.056.215.079c.152.045.294.133.454.2.062.038.127.074.192.111l-.552.465-.393.33-.446.344-1.037.8-1.274.9c-.921.623-1.983,1.286-3.168,1.957-.593.334-1.232.644-1.881.982l-1.014.468c-.342.162-.689.323-1.053.463l-1.094.445c-.372.143-.756.268-1.139.405-.763.285-1.568.5-2.373.759a45.089,45.089,0,0,1-5.1,1.057,41.483,41.483,0,0,1-5.357.37,40.986,40.986,0,0,1-5.357-.368,44.143,44.143,0,0,1-5.1-1.055c-.805-.257-1.611-.472-2.374-.757-.383-.138-.768-.262-1.139-.406l-1.094-.445c-.363-.139-.711-.3-1.052-.463l-1.015-.467c-.649-.338-1.288-.648-1.881-.983-1.185-.671-2.247-1.334-3.167-1.958l-1.273-.9-1.049-.811-.45-.348-.385-.322-.544-.457c.065-.037.13-.074.193-.112.16-.064.3-.153.454-.2l.215-.079.207-.056a3.346,3.346,0,0,1,.344-.08l.138-.031.16-.014c.195-.018.306-.032.306-.032a.769.769,0,0,0-.077-1.531s-.112,0-.307,0l-.163,0-.239.026a3.31,3.31,0,0,0-.552.1l-.3.075-.31.113a5.067,5.067,0,0,0-.645.3,5.233,5.233,0,0,0-.628.425,4.514,4.514,0,0,0-1.054,1.135,5.287,5.287,0,0,0-.371.647,4.964,4.964,0,0,0-.242.65l-.086.307-.05.293a3.044,3.044,0,0,0-.05.514,2.54,2.54,0,0,0,0,.394c.013.218.026.34.026.34a.46.46,0,0,0,.906.059l.014-.059s.024-.1.057-.273a1.779,1.779,0,0,1,.074-.305,3.364,3.364,0,0,1,.126-.382l.081-.212.106-.218c.062-.153.17-.293.252-.45.058-.078.114-.158.173-.238l.03.032.566.6.361.383.433.41,1.014.958,1.256,1.061c.449.38.961.74,1.484,1.144.259.206.542.393.831.585l.885.593c.608.4,1.266.771,1.938,1.176l1.057.558c.358.19.723.38,1.1.548l1.152.531c.392.172.8.326,1.2.493.806.35,1.668.6,2.53.9a41.037,41.037,0,0,0,5.479,1.272,43.935,43.935,0,0,0,5.795.452,43.45,43.45,0,0,0,5.8-.45,40.454,40.454,0,0,0,5.48-1.27,37.5,37.5,0,0,0,4.886-1.925c.382-.168.747-.358,1.1-.549l1.058-.557c.672-.405,1.329-.78,1.938-1.177l.885-.593c.289-.192.572-.378.831-.584.523-.4,1.034-.766,1.483-1.146l1.256-1.062,1.026-.969.437-.415.353-.375.553-.593.035-.037c.059.08.114.16.173.238.082.156.19.3.252.45l.106.218.08.212a3.364,3.364,0,0,1,.126.382,1.779,1.779,0,0,1,.074.305c.033.172.057.273.057.273l.014.059a.46.46,0,0,0,.906-.059s.013-.122.026-.34A2.482,2.482,0,0,0,1123.871,644.969Z" transform="translate(1262.651 6267.019)" fill="#040505"/>
  </g>
</svg>
