<svg xmlns="http://www.w3.org/2000/svg" width="60.641" height="71.138" viewBox="0 0 60.641 71.138">
  <g id="Group_52088" data-name="Group 52088" transform="translate(-9.411 -5.5)" opacity="0.86">
    <path id="Path_13196" data-name="Path 13196" d="M58.136,29.187a21.068,21.068,0,0,1-4.39,17.61c-2.429,3.048-5.543,5.409-7.972,8.429a48.253,48.253,0,0,0-3.4,5.114H32.419c-.577-.94-1.141-1.893-1.731-2.819a38.606,38.606,0,0,0-5.919-6.631c-4.067-3.945-7.409-8.443-8.3-14.147A21.387,21.387,0,0,1,30.377,13.5,21.4,21.4,0,0,1,58.136,29.187Z" transform="translate(2.333 2.339)" fill="#feef79"/>
    <path id="Path_13197" data-name="Path 13197" d="M40.375,55.223c2.429-3.02,5.543-5.382,7.972-8.429a21.071,21.071,0,0,0,4.39-17.61A21.444,21.444,0,0,0,32,12.344V60.337h4.978a48.254,48.254,0,0,1,3.4-5.114Z" transform="translate(7.731 2.342)" fill="#f8be31" opacity="0.48"/>
    <path id="Path_13198" data-name="Path 13198" d="M34.415,40.03A9.546,9.546,0,0,1,28.9,22.743a9.363,9.363,0,0,1,5.443-1.723,9.505,9.505,0,1,1,.07,19.01Z" transform="translate(5.316 5.311)" fill="#efefef"/>
    <path id="Path_13199" data-name="Path 13199" d="M28.969,30.529a9.492,9.492,0,0,1,3.96-7.786,9.293,9.293,0,0,1,3.448-1.487,9.8,9.8,0,0,0-2.033-.236A9.363,9.363,0,0,0,28.9,22.742a9.488,9.488,0,0,0,7.526,17.046,9.338,9.338,0,0,1-7.457-9.26Z" transform="translate(5.315 5.311)" opacity="0.2"/>
    <path id="Path_13200" data-name="Path 13200" d="M50.45,28.607H48.423a12.707,12.707,0,0,0-1.142-2.765l1.424-1.423c1.087-1.087-.617-2.577-1.329-3.315-.753-.765-2.47-2.819-3.637-1.651l-1.424,1.423a13.023,13.023,0,0,0-2.765-1.141V17.708c0-1.6-2.456-1.4-3.517-1.4s-3.517-.2-3.517,1.4v2.027a13.053,13.053,0,0,0-2.765,1.141l-1.424-1.423c-1.087-1.087-2.577.617-3.315,1.329-.765.752-2.819,2.47-1.651,3.637l1.424,1.423a12.841,12.841,0,0,0-1.142,2.765H21.616c-1.6,0-1.4,2.456-1.4,3.517s-.2,3.517,1.4,3.517h2.027a12.987,12.987,0,0,0,1.142,2.765l-1.424,1.423c-1.087,1.087.617,2.564,1.329,3.315.753.765,2.47,2.82,3.637,1.651l1.424-1.424,1.584.738a12.751,12.751,0,0,0,9.4,0l1.584-.738,1.424,1.424c1.087,1.087,2.577-.617,3.315-1.329.779-.765,2.819-2.47,1.651-3.637l-1.424-1.423a13.128,13.128,0,0,0,1.142-2.765H50.45c1.6,0,1.4-2.47,1.4-3.517s.2-3.517-1.4-3.517ZM40.732,38.821A8.182,8.182,0,1,1,43.591,29a8.2,8.2,0,0,1-2.859,9.825Z" transform="translate(3.697 3.697)" fill="#585858"/>
    <path id="Path_13201" data-name="Path 13201" d="M39.58,51.84v4.241a4.021,4.021,0,0,1-4.027,4.027H31.527A4.021,4.021,0,0,1,27.5,56.081V51.84Z" transform="translate(6.191 15.859)" fill="#feef79"/>
    <path id="Path_13202" data-name="Path 13202" d="M38.04,56.081V51.84H32v8.268h2.012A4.021,4.021,0,0,0,38.04,56.081Z" transform="translate(7.731 15.859)" fill="#fcd856" opacity="0.7"/>
    <path id="Path_13203" data-name="Path 13203" d="M33.2,25.01l-4.7,7.624V54.2h9.4V32.634Z" transform="translate(6.533 6.677)" fill="#585858"/>
    <path id="Path_13204" data-name="Path 13204" d="M37.9,30.69V52.26H28.5V30.69l4.7,2.08Z" transform="translate(6.533 8.621)" fill="#22c55e"/>
    <path id="Path_13205" data-name="Path 13205" d="M36.7,30.69,32,32.77V52.26h4.7Z" transform="translate(7.731 8.621)" opacity="0.2"/>
    <path id="Path_13206" data-name="Path 13206" d="M41.085,46c3.463,0,3.463,5.369,0,5.369H27.662c-3.463,0-3.463-5.369,0-5.369Z" transform="translate(5.358 13.861)" fill="#585858"/>
    <path id="Path_13207" data-name="Path 13207" d="M40.242,50c3.463,0,3.463,5.369,0,5.369H28.162c-3.463,0-3.463-5.369,0-5.369Z" transform="translate(5.529 15.23)" fill="#606060"/>
    <path id="Path_13208" data-name="Path 13208" d="M44.547,27.894H42.521a12.707,12.707,0,0,0-1.142-2.765L42.8,23.706c1.087-1.087-.617-2.577-1.329-3.315-.753-.765-2.47-2.819-3.637-1.651l-.368.368a16.55,16.55,0,0,1,1.321,1.283c.711.738,2.416,2.228,1.329,3.315l-1.424,1.423a12.841,12.841,0,0,1,1.142,2.765h2.027c1.6,0,1.4,2.456,1.4,3.517s.2,3.517-1.4,3.517H39.836a12.987,12.987,0,0,1-1.142,2.765l1.424,1.423c1.166,1.168-.872,2.872-1.651,3.637-.259.251-.613.62-1.008.952l.377.377c1.087,1.087,2.577-.617,3.315-1.329.779-.765,2.819-2.47,1.651-3.637l-1.424-1.423a13.128,13.128,0,0,0,1.142-2.765h2.027c1.6,0,1.4-2.47,1.4-3.517s.2-3.517-1.4-3.517Z" transform="translate(9.599 4.411)" opacity="0.2"/>
    <path id="Path_13209" data-name="Path 13209" d="M33.174,17.708v2.027a13.053,13.053,0,0,1,2.765,1.141l.827-.827c-.3-.11-.6-.228-.907-.314V17.708c0-1.6-2.456-1.4-3.517-1.4-.344,0-.836-.016-1.342.009,1.055.054,2.174.307,2.174,1.387Z" transform="translate(7.389 3.697)" opacity="0.2"/>
    <path id="Path_13210" data-name="Path 13210" d="M29.161,37.586a.671.671,0,0,0,.77-1.1,7.5,7.5,0,1,1,11.252-9.023.671.671,0,1,0,1.24-.513A8.837,8.837,0,1,0,29.161,37.586Z" transform="translate(5.487 5.482)"/>
    <path id="Path_13211" data-name="Path 13211" d="M39.751,53.5H27.671a.671.671,0,1,0,0,1.342h12.08a.671.671,0,1,0,0-1.342Z" transform="translate(6.02 16.427)"/>
    <path id="Path_13212" data-name="Path 13212" d="M20.49,33.519a1.787,1.787,0,0,0,1.3.526h1.521a13.672,13.672,0,0,0,.816,1.972l-1.075,1.075c-1.46,1.464.282,3.2,1.118,4.04l.424.436c.741.785,1.86,1.97,3.07,1.988h.027a1.783,1.783,0,0,0,1.278-.546l1.093-1.093,1.153.545a.671.671,0,1,0,.574-1.213L30.211,40.5a.672.672,0,0,0-.761.133l-1.427,1.427a.426.426,0,0,1-.336.153c-.643-.009-1.636-1.062-2.113-1.568l-.452-.466C24.144,39.2,23.58,38.466,24,38.039l1.427-1.427a.673.673,0,0,0,.111-.8,12.109,12.109,0,0,1-1.086-2.621.674.674,0,0,0-.646-.489H21.792a.43.43,0,0,1-.346-.126c-.415-.42-.395-1.7-.384-2.381l0-.334,0-.332c-.011-.686-.03-1.962.384-2.382a.433.433,0,0,1,.346-.126h2.019a.67.67,0,0,0,.646-.489,12.153,12.153,0,0,1,1.086-2.621.671.671,0,1,0-1.172-.654,13.515,13.515,0,0,0-1.056,2.421H21.794a1.787,1.787,0,0,0-1.3.526c-.809.821-.785,2.341-.769,3.346l0,.313,0,.313c-.016,1.005-.04,2.523.769,3.345Z" transform="translate(3.527 5.959)"/>
    <path id="Path_13213" data-name="Path 13213" d="M28.4,31.474l4.7,2.082a.666.666,0,0,0,.271.058.671.671,0,0,0,.271-1.285l-4.7-2.082a.671.671,0,1,0-.542,1.227Z" transform="translate(6.362 8.449)"/>
    <path id="Path_13214" data-name="Path 13214" d="M36.3,33.155a.671.671,0,1,0,1.144-.7l-4.7-7.619a.671.671,0,1,0-1.142.7Z" transform="translate(7.56 6.507)"/>
    <path id="Path_13215" data-name="Path 13215" d="M28.333,50.842a.671.671,0,0,0,0-1.342,3.128,3.128,0,0,0-2.456,1.072,3.489,3.489,0,0,0-.811,2.283,3.21,3.21,0,0,0,3.268,3.356.671.671,0,1,0,0-1.342,1.872,1.872,0,0,1-1.926-2.013,2.185,2.185,0,0,1,.487-1.408A1.8,1.8,0,0,1,28.333,50.842Z" transform="translate(5.358 15.059)"/>
    <path id="Path_13216" data-name="Path 13216" d="M36,50.171a.671.671,0,0,0,.671.671A1.872,1.872,0,0,1,38.6,52.856a2.185,2.185,0,0,1-.487,1.408,1.8,1.8,0,0,1-1.438.605.671.671,0,0,0,0,1.342,3.128,3.128,0,0,0,2.456-1.072,3.489,3.489,0,0,0,.811-2.283A3.21,3.21,0,0,0,36.671,49.5a.671.671,0,0,0-.671.671Z" transform="translate(9.1 15.059)"/>
    <path id="Path_13217" data-name="Path 13217" d="M26.5,46.171a.671.671,0,0,0,.671.671H40.594a.671.671,0,0,0,0-1.342H27.171A.671.671,0,0,0,26.5,46.171Z" transform="translate(5.849 13.69)"/>
    <path id="Path_13218" data-name="Path 13218" d="M32.171,40.322a.671.671,0,0,0,.671-.671v-7.24a.671.671,0,0,0-1.342,0v7.24A.671.671,0,0,0,32.171,40.322Z" transform="translate(7.56 8.98)"/>
    <path id="Path_13219" data-name="Path 13219" d="M28.671,52.082a.671.671,0,0,0,.671-.671V30.86a.671.671,0,1,0-1.342,0V51.411A.671.671,0,0,0,28.671,52.082Z" transform="translate(6.362 8.449)"/>
    <path id="Path_13220" data-name="Path 13220" d="M35.671,52.082a.671.671,0,0,0,.671-.671V30.86a.671.671,0,1,0-1.342,0V51.411A.671.671,0,0,0,35.671,52.082Z" transform="translate(8.758 8.449)"/>
    <path id="Path_13221" data-name="Path 13221" d="M27,55.171a4.7,4.7,0,0,0,4.7,4.7.671.671,0,0,0,0-1.342,3.359,3.359,0,0,1-3.356-3.356.671.671,0,1,0-1.342,0Z" transform="translate(6.02 16.77)"/>
    <path id="Path_13222" data-name="Path 13222" d="M33.671,59.869a4.7,4.7,0,0,0,4.7-4.7.671.671,0,1,0-1.342,0,3.359,3.359,0,0,1-3.356,3.356.671.671,0,0,0,0,1.342Z" transform="translate(8.073 16.77)"/>
    <path id="Path_13223" data-name="Path 13223" d="M37.171,50.869a.671.671,0,1,0,0,1.342,3.128,3.128,0,0,0,2.456-1.072,3.489,3.489,0,0,0,.811-2.283A3.21,3.21,0,0,0,37.17,45.5a.671.671,0,0,0,0,1.342A1.872,1.872,0,0,1,39.1,48.856a2.185,2.185,0,0,1-.487,1.408,1.8,1.8,0,0,1-1.438.605Z" transform="translate(9.271 13.69)"/>
    <path id="Path_13224" data-name="Path 13224" d="M27.833,52.211a.671.671,0,1,0,0-1.342,1.872,1.872,0,0,1-1.926-2.013,2.185,2.185,0,0,1,.487-1.408,1.8,1.8,0,0,1,1.438-.605.671.671,0,0,0,0-1.342,3.128,3.128,0,0,0-2.456,1.072,3.489,3.489,0,0,0-.811,2.283A3.21,3.21,0,0,0,27.833,52.211Z" transform="translate(5.186 13.69)"/>
    <g id="Group_52089" data-name="Group 52089" transform="translate(9.411 5.5)">
      <path id="Path_13225" data-name="Path 13225" d="M32.171,10.853a.671.671,0,0,0,.671-.671V7.437a.671.671,0,1,0-1.342,0v2.745A.671.671,0,0,0,32.171,10.853Z" transform="translate(-1.851 -5.067)" fill="#fff" opacity="0.48"/>
      <path id="Path_13226" data-name="Path 13226" d="M22.552,12.94a.671.671,0,0,0,1.162-.671L22.342,9.891a.671.671,0,0,0-1.162.671Z" transform="translate(-5.413 -4.112)" fill="#fff" opacity="0.48"/>
      <path id="Path_13227" data-name="Path 13227" d="M13.8,18.429,16.18,19.8a.671.671,0,0,0,.917-.246.669.669,0,0,0-.246-.917l-2.377-1.372a.671.671,0,0,0-.671,1.162Z" transform="translate(-8.022 -1.504)" fill="#fff" opacity="0.48"/>
      <path id="Path_13228" data-name="Path 13228" d="M11.349,27.589a.671.671,0,0,0,0,1.342h2.745a.671.671,0,1,0,0-1.342Z" transform="translate(-8.977 2.059)" fill="#fff" opacity="0.48"/>
      <path id="Path_13229" data-name="Path 13229" d="M17.1,37.314a.671.671,0,0,0-.917-.246L13.8,38.44a.671.671,0,0,0,.336,1.252.663.663,0,0,0,.336-.09l2.377-1.372A.669.669,0,0,0,17.1,37.314Z" transform="translate(-8.022 5.273)" fill="#fff" opacity="0.48"/>
      <path id="Path_13230" data-name="Path 13230" d="M41.225,13.185a.671.671,0,0,0,.917-.246l1.372-2.377a.671.671,0,1,0-1.162-.671l-1.372,2.377A.669.669,0,0,0,41.225,13.185Z" transform="translate(1.362 -4.112)" fill="#fff" opacity="0.48"/>
      <path id="Path_13231" data-name="Path 13231" d="M47.852,19.556a.671.671,0,0,0,.581.336.663.663,0,0,0,.336-.09l2.377-1.372a.671.671,0,0,0-.671-1.162L48.1,18.639A.669.669,0,0,0,47.852,19.556Z" transform="translate(3.715 -1.503)" fill="#fff" opacity="0.48"/>
      <path id="Path_13232" data-name="Path 13232" d="M53.693,28.931a.671.671,0,0,0,0-1.342H50.948a.671.671,0,0,0,0,1.342Z" transform="translate(4.576 2.059)" fill="#fff" opacity="0.48"/>
      <path id="Path_13233" data-name="Path 13233" d="M51.146,38.44l-2.377-1.372a.671.671,0,1,0-.671,1.162L50.475,39.6a.663.663,0,0,0,.336.09.671.671,0,0,0,.336-1.252Z" transform="translate(3.715 5.272)" fill="#fff" opacity="0.48"/>
      <path id="Path_13234" data-name="Path 13234" d="M49.66,23.936a.674.674,0,0,0,.648.5.656.656,0,0,0,.174-.023l5.3-1.421a.671.671,0,1,0-.348-1.3l-5.3,1.421a.671.671,0,0,0-.475.821Z" transform="translate(4.357 0.033)" fill="#fff" opacity="0.48"/>
      <path id="Path_13235" data-name="Path 13235" d="M55.785,33.891l-5.3-1.42a.672.672,0,0,0-.348,1.3l5.3,1.421a.716.716,0,0,0,.174.023.673.673,0,0,0,.173-1.322Z" transform="translate(4.357 3.722)" fill="#fff" opacity="0.48"/>
      <path id="Path_13236" data-name="Path 13236" d="M45.923,41.063a.671.671,0,1,0-.949.949L48.857,45.9a.671.671,0,0,0,.95-.949Z" transform="translate(2.693 6.603)" fill="#fff" opacity="0.48"/>
      <path id="Path_13237" data-name="Path 13237" d="M19.409,41.063l-3.883,3.883a.671.671,0,0,0,.95.949l3.883-3.883a.671.671,0,0,0-.95-.949Z" transform="translate(-7.385 6.603)" fill="#fff" opacity="0.48"/>
      <path id="Path_13238" data-name="Path 13238" d="M10.082,35.212a.716.716,0,0,0,.174-.023l5.3-1.421a.672.672,0,1,0-.348-1.3l-5.3,1.42a.673.673,0,0,0,.173,1.322Z" transform="translate(-9.411 3.722)" fill="#fff" opacity="0.48"/>
      <path id="Path_13239" data-name="Path 13239" d="M9.909,22.99l5.3,1.421a.656.656,0,0,0,.174.023.671.671,0,0,0,.173-1.319l-5.3-1.421a.671.671,0,1,0-.348,1.3Z" transform="translate(-9.411 0.033)" fill="#fff" opacity="0.48"/>
      <path id="Path_13240" data-name="Path 13240" d="M19.409,16.447a.671.671,0,1,0,.95-.949l-3.883-3.883a.671.671,0,1,0-.949.949Z" transform="translate(-7.384 -3.475)" fill="#fff" opacity="0.48"/>
      <path id="Path_13241" data-name="Path 13241" d="M27.024,11.647a.674.674,0,0,0,.648.5.656.656,0,0,0,.174-.023.671.671,0,0,0,.475-.821L26.9,6a.672.672,0,0,0-1.3.346Z" transform="translate(-3.877 -5.5)" fill="#fff" opacity="0.48"/>
      <path id="Path_13242" data-name="Path 13242" d="M36.857,12.122a.656.656,0,0,0,.174.023.671.671,0,0,0,.648-.5l1.421-5.3A.672.672,0,0,0,37.8,6l-1.421,5.3A.674.674,0,0,0,36.857,12.122Z" transform="translate(-0.188 -5.5)" fill="#fff" opacity="0.48"/>
      <path id="Path_13243" data-name="Path 13243" d="M45.448,16.643a.674.674,0,0,0,.475-.2l3.883-3.883a.671.671,0,0,0-.949-.949L44.974,15.5a.67.67,0,0,0,.474,1.145Z" transform="translate(2.693 -3.475)" fill="#fff" opacity="0.48"/>
    </g>
    <path id="Path_13244" data-name="Path 13244" d="M24.706,21.664l.464-.451c.444-.446,1.272-1.275,1.816-1.275a.431.431,0,0,1,.326.156l1.427,1.427a.673.673,0,0,0,.8.111,12.176,12.176,0,0,1,2.621-1.086.67.67,0,0,0,.487-.646V17.883a.437.437,0,0,1,.126-.346c.42-.415,1.7-.4,2.382-.384l.333,0,.333,0c.686-.013,1.962-.031,2.382.384a.437.437,0,0,1,.126.346V19.9a.67.67,0,0,0,.487.646,12.176,12.176,0,0,1,2.621,1.086.673.673,0,0,0,.8-.111l1.428-1.427a.441.441,0,0,1,.337-.154c.642.009,1.634,1.06,2.11,1.565l.452.464c.978.978,1.544,1.717,1.119,2.144l-1.427,1.427a.671.671,0,0,0-.111.8,12.22,12.22,0,0,1,1.086,2.621.674.674,0,0,0,.646.489H49.9a.43.43,0,0,1,.346.126c.415.42.395,1.7.384,2.382l0,.334,0,.334c.011.686.03,1.961-.384,2.381a.433.433,0,0,1-.346.126H47.885a.67.67,0,0,0-.646.489,12.1,12.1,0,0,1-1.086,2.621.673.673,0,0,0,.111.8l1.427,1.425a.434.434,0,0,1,.154.34c-.011.643-1.062,1.635-1.566,2.111l-.464.451c-.444.446-1.272,1.275-1.815,1.275h0a.431.431,0,0,1-.326-.156l-1.427-1.427a.676.676,0,0,0-.761-.133l-1.581.748a.671.671,0,0,0,.574,1.213l1.153-.545,1.093,1.093A1.781,1.781,0,0,0,44,45.992h0c1.1,0,2.1-1.005,2.765-1.67L47.2,43.9c.784-.74,1.969-1.858,1.987-3.067a1.793,1.793,0,0,0-.546-1.307L47.565,38.45a13.671,13.671,0,0,0,.816-1.972H49.9a1.787,1.787,0,0,0,1.3-.526c.809-.821.785-2.34.769-3.345l0-.313,0-.313c.016-1.005.039-2.525-.769-3.346a1.787,1.787,0,0,0-1.3-.526H48.38a13.5,13.5,0,0,0-.816-1.972l1.076-1.075c1.462-1.463-.282-3.2-1.121-4.041l-.423-.436c-.741-.784-1.86-1.969-3.068-1.985a1.627,1.627,0,0,0-1.3.546l-1.076,1.075a13.522,13.522,0,0,0-1.972-.816V17.884a1.785,1.785,0,0,0-.528-1.3c-.821-.809-2.34-.785-3.345-.769h-.311l-.311,0c-1.007-.016-2.525-.039-3.345.769a1.78,1.78,0,0,0-.528,1.3V19.4a13.672,13.672,0,0,0-1.972.816L28.26,19.144a1.778,1.778,0,0,0-1.275-.549c-1.1,0-2.1,1.005-2.766,1.67l-.435.423c-.784.74-1.969,1.858-1.987,3.067a1.788,1.788,0,0,0,.546,1.306l1.427,1.427a.671.671,0,0,0,.949-.949l-1.427-1.425a.432.432,0,0,1-.153-.338c.009-.642,1.06-1.635,1.566-2.111Z" transform="translate(4.239 3.527)"/>
    <path id="Path_13245" data-name="Path 13245" d="M35.286,35.209a.671.671,0,0,0,.385,1.22.659.659,0,0,0,.385-.122,8.8,8.8,0,0,0,3.1-10.637.671.671,0,0,0-1.24.513,7.47,7.47,0,0,1-2.628,9.027Z" transform="translate(8.758 6.761)"/>
    <path id="Path_13246" data-name="Path 13246" d="M32.171,33.613a.666.666,0,0,0,.271-.058l4.7-2.082a.671.671,0,1,0-.542-1.227l-4.7,2.082a.671.671,0,0,0,.271,1.285Z" transform="translate(7.56 8.449)"/>
    <path id="Path_13247" data-name="Path 13247" d="M33.722,24.613a.671.671,0,0,0-.923.22l-4.7,7.619a.671.671,0,0,0,1.144.7l4.7-7.619a.675.675,0,0,0-.22-.923Z" transform="translate(6.362 6.507)"/>
    <path id="Path_13248" data-name="Path 13248" d="M34.7,57.5H30.671a.671.671,0,0,0,0,1.342H34.7a.671.671,0,0,0,0-1.342Z" transform="translate(7.047 17.796)"/>
    <path id="Path_13249" data-name="Path 13249" d="M36.671,53.5a.671.671,0,0,0-.671.671v1.342a.671.671,0,0,0,1.342,0V54.171A.671.671,0,0,0,36.671,53.5Z" transform="translate(9.1 16.427)"/>
    <path id="Path_13250" data-name="Path 13250" d="M27.671,53.5a.671.671,0,0,0-.671.671v1.342a.671.671,0,0,0,1.342,0V54.171A.671.671,0,0,0,27.671,53.5Z" transform="translate(6.02 16.427)"/>
    <path id="Path_13251" data-name="Path 13251" d="M15.981,37a22.638,22.638,0,0,0,5.612,11.456c1.119,1.314,2.349,2.526,3.538,3.7a35.644,35.644,0,0,1,5.164,5.89.671.671,0,1,0,1.125-.732A37.235,37.235,0,0,0,26.071,51.2c-1.168-1.15-2.376-2.341-3.456-3.611a21.341,21.341,0,0,1-5.307-10.793,20.777,20.777,0,0,1,7.735-19.4,20.513,20.513,0,0,1,32,22.691,24.5,24.5,0,0,1-5.415,8.526c-.875.964-1.816,1.887-2.725,2.781a35.842,35.842,0,0,0-5.184,5.922.671.671,0,1,0,1.126.732,34.2,34.2,0,0,1,5-5.7c.923-.906,1.875-1.844,2.777-2.836a25.679,25.679,0,0,0,5.7-9.005A21.906,21.906,0,0,0,24.225,16.33,22.131,22.131,0,0,0,15.981,37Z" transform="translate(2.163 2.183)"/>
    <path id="Path_13252" data-name="Path 13252" d="M40.594,49.5H27.171a.671.671,0,0,0,0,1.342H40.594a.671.671,0,1,0,0-1.342Z" transform="translate(5.849 15.059)"/>
  </g>
</svg>
