<svg xmlns="http://www.w3.org/2000/svg" width="25.068" height="25.07" viewBox="0 0 25.068 25.07">
  <g id="Page-1" transform="translate(-0.001 0.002)">
    <g id="_022---Cash" data-name="022---Cash" transform="translate(0.001 -0.002)">
      <path id="Shape" d="M24.352,13.685l-3.73.648a3.458,3.458,0,0,0-6.79.929c0,.086,0,.173.009.255L2.979,17.411a.871.871,0,0,1-1.007-.7L.014,5.732a.861.861,0,0,1,.7-.994L22.092,1.012a.864.864,0,0,1,1,.7l1.962,10.983a.861.861,0,0,1-.7.994Z" transform="translate(-0.001 -0.998)" fill="#7ed09e"/>
      <path id="Shape-2" data-name="Shape" d="M22.633,15.679l1.387-.242a2.143,2.143,0,0,1,1.755-2.485l-.9-5.07A2.166,2.166,0,0,1,22.365,6.14l-7.7,1.344-7.7,1.34A2.143,2.143,0,0,1,5.21,11.309l.9,5.07A2.166,2.166,0,0,1,8.62,18.121l7.7-1.344.834-.143Z" transform="translate(-2.959 -3.918)" fill="#24ae5f"/>
      <path id="Shape-3" data-name="Shape" d="M24.437,18.2v0a5.346,5.346,0,0,1-.886.242,4.72,4.72,0,1,1-1.66-9.293,4.771,4.771,0,0,1,5.532,3.825,4.649,4.649,0,0,1-.782,3.514Z" transform="translate(-10.188 -5.584)" fill="#4fba6f"/>
      <path id="Shape-4" data-name="Shape" d="M28.357,15.976a1.736,1.736,0,0,0-2.008-1.394.87.87,0,0,1-1.009-.694.839.839,0,0,1,.14-.631.875.875,0,0,1,1.574.337.432.432,0,1,0,.851-.152,1.729,1.729,0,0,0-1.573-1.408l-.086-.481a.432.432,0,0,0-.851.152l.086.475a1.713,1.713,0,0,0-.709.58,1.7,1.7,0,0,0-.283,1.279A1.738,1.738,0,0,0,26.5,15.434a.867.867,0,0,1,1.008.694.837.837,0,0,1-.14.632.875.875,0,0,1-1.573-.337.432.432,0,1,0-.851.152,1.729,1.729,0,0,0,1.573,1.408l.086.481a.432.432,0,0,0,.425.356.423.423,0,0,0,.077-.007.432.432,0,0,0,.349-.5l-.086-.478a1.715,1.715,0,0,0,.709-.578,1.694,1.694,0,0,0,.283-1.279Z" transform="translate(-13.89 -6.795)" fill="#fff"/>
      <g id="Group_51587" data-name="Group 51587" transform="translate(8.212 10.806)">
        <path id="Shape-5" data-name="Shape" d="M38.916,29.458a3.458,3.458,0,0,1-6.907.255c0-.082-.009-.169-.009-.255a3.458,3.458,0,0,1,6.916,0Z" transform="translate(-26.381 -26)" fill="#f3d55b"/>
        <circle id="Oval" cx="3.458" cy="3.458" r="3.458" transform="translate(0 6.483)" fill="#f3d55b"/>
        <circle id="Oval-2" data-name="Oval" cx="3.458" cy="3.458" r="3.458" transform="translate(9.941 7.348)" fill="#f3d55b"/>
      </g>
      <path id="Shape-6" data-name="Shape" d="M38.338,29.945a.432.432,0,0,0,.749-.432,2.171,2.171,0,0,0-1.494-1.037v-.043a.432.432,0,1,0-.864,0v.051a2.152,2.152,0,0,0,0,4.22v.051a.432.432,0,0,0,.864,0v-.041a2.171,2.171,0,0,0,1.494-1.039.432.432,0,0,0-.749-.432,1.3,1.3,0,0,1-.745.582v-2.46a1.3,1.3,0,0,1,.745.582Zm-2.474.648a1.3,1.3,0,0,1,.864-1.21V31.8A1.3,1.3,0,0,1,35.864,30.593Z" transform="translate(-19.872 -16.329)" fill="#e57e25"/>
      <path id="Shape-7" data-name="Shape" d="M26.284,45.372a.432.432,0,0,0-.835.224,1.3,1.3,0,0,1-.115.938l-1.74-1.739a1.3,1.3,0,0,1,.938-.116.432.432,0,1,0,.224-.835,2.171,2.171,0,0,0-1.792.321l-.029-.029a.432.432,0,0,0-.611.611l.036.036a2.171,2.171,0,0,0,.27,2.715,2.14,2.14,0,0,0,1.519.625,2.2,2.2,0,0,0,1.2-.356l.036.036a.432.432,0,0,0,.611-.611l-.029-.029a2.173,2.173,0,0,0,.321-1.792Zm-3.043,1.513A1.3,1.3,0,0,1,23,45.418l1.712,1.712a1.3,1.3,0,0,1-1.467-.242Z" transform="translate(-12.494 -25.285)" fill="#e57e25"/>
      <path id="Shape-8" data-name="Shape" d="M49.118,46.959l.029-.029a.432.432,0,0,0-.611-.611l-.036.036a2.152,2.152,0,0,0-2.982,2.985l-.036.036a.432.432,0,1,0,.611.611l.029-.028a2.193,2.193,0,0,0,1.243.392,2.126,2.126,0,0,0,.549-.072.432.432,0,1,0-.224-.835,1.294,1.294,0,0,1-.938-.115l1.739-1.74a1.3,1.3,0,0,1,.116.938.432.432,0,1,0,.835.224,2.171,2.171,0,0,0-.322-1.792Zm-2.723.277a1.3,1.3,0,0,1,1.467-.245L46.151,48.7a1.3,1.3,0,0,1,.245-1.467Z" transform="translate(-25.64 -26.547)" fill="#e57e25"/>
    </g>
  </g>
</svg>
