<svg xmlns="http://www.w3.org/2000/svg" width="13" height="13" viewBox="0 0 13 13">
  <path id="Path_13192" data-name="Path 13192" d="M9.5,3a.722.722,0,0,1,.511.212L12.9,6.1a.722.722,0,1,1-1.021,1.021L10.222,5.466v6.2a.722.722,0,1,1-1.444,0v-6.2L7.122,7.122A.722.722,0,0,1,6.1,6.1L8.989,3.212A.722.722,0,0,1,9.5,3ZM3.722,10.944a.722.722,0,0,1,.722.722,6.852,6.852,0,0,0,.042,1.145,2.167,2.167,0,0,0,1.7,1.7,6.853,6.853,0,0,0,1.145.042h4.333a6.854,6.854,0,0,0,1.145-.042,2.167,2.167,0,0,0,1.7-1.7,6.854,6.854,0,0,0,.042-1.145.722.722,0,1,1,1.444,0v.084a7.229,7.229,0,0,1-.069,1.343,3.611,3.611,0,0,1-2.837,2.837A7.228,7.228,0,0,1,11.75,16H7.25a7.228,7.228,0,0,1-1.343-.069,3.611,3.611,0,0,1-2.837-2.837A7.232,7.232,0,0,1,3,11.75c0-.028,0-.055,0-.084a.722.722,0,0,1,.722-.722Z" transform="translate(-3 -3)" fill="#fff" fill-rule="evenodd"/>
</svg>
