<svg xmlns="http://www.w3.org/2000/svg" width="58.579" height="71.139" viewBox="0 0 58.579 71.139">
  <g id="Premium" transform="translate(-9.034 -4.029)" opacity="0.8">
    <path id="Path_13253" data-name="Path 13253" d="M25.833,68.593l-2.6-7.724L16.26,65.113,31.517,23.19l9.573,3.48Z" transform="translate(1.984 5.262)" fill="#22c55e"/>
    <path id="Path_13254" data-name="Path 13254" d="M24.33,68.241l-2.6-7.724L34.5,24.47l5.086,1.848Z" transform="translate(3.487 5.614)" fill="#1b9e4b"/>
    <path id="Path_13255" data-name="Path 13255" d="M43.517,68.593l2.6-7.724,6.972,4.245L37.833,23.19,28.26,26.67Z" transform="translate(5.28 5.262)" fill="#22c55e"/>
    <path id="Path_13256" data-name="Path 13256" d="M43.517,68.216l2.6-7.724L33.027,24.56,28.26,26.294Z" transform="translate(5.28 5.639)" fill="#1b9e4b"/>
    <path id="Path_13257" data-name="Path 13257" d="M62.26,37.848a27.953,27.953,0,0,0,1.708,5.914,26.768,26.768,0,0,0-5.392,2.983,27.761,27.761,0,0,0-.688,6.106,27.762,27.762,0,0,0-6.106.688A27.06,27.06,0,0,0,48.8,58.93a28.041,28.041,0,0,0-5.94-1.67,27.519,27.519,0,0,0-4.818,3.824,27.519,27.519,0,0,0-4.793-3.824,27.953,27.953,0,0,0-5.914,1.708,26.767,26.767,0,0,0-2.983-5.392,27.762,27.762,0,0,0-6.106-.688,19.439,19.439,0,0,0-.1-2.116,25.951,25.951,0,0,0-.586-3.99A27.061,27.061,0,0,0,12.167,43.8a28.042,28.042,0,0,0,1.657-5.94A27.52,27.52,0,0,0,10,33.042a27.52,27.52,0,0,0,3.824-4.793,27.953,27.953,0,0,0-1.708-5.914,26.767,26.767,0,0,0,5.392-2.983,27.762,27.762,0,0,0,.688-6.106,27.762,27.762,0,0,0,6.106-.688,27.061,27.061,0,0,0,2.983-5.392,28.042,28.042,0,0,0,5.94,1.657A27.52,27.52,0,0,0,38.042,5a27.519,27.519,0,0,0,4.793,3.824,27.953,27.953,0,0,0,5.914-1.708,26.767,26.767,0,0,0,2.983,5.392,25.952,25.952,0,0,0,3.99.586,19.44,19.44,0,0,0,2.116.1,27.762,27.762,0,0,0,.688,6.106,27.06,27.06,0,0,0,5.392,2.983,28.042,28.042,0,0,0-1.657,5.94,27.52,27.52,0,0,0,3.824,4.818,27.519,27.519,0,0,0-3.824,4.805Z" transform="translate(0.265 0.267)" fill="#f8be31"/>
    <path id="Path_13258" data-name="Path 13258" d="M57.162,22.208A29.941,29.941,0,0,1,18.119,50.747a25.952,25.952,0,0,0-.586-3.99,27.061,27.061,0,0,0-5.392-2.983,28.042,28.042,0,0,0,1.683-5.914A27.52,27.52,0,0,0,10,33.042a27.519,27.519,0,0,0,3.824-4.793,27.953,27.953,0,0,0-1.708-5.914,26.768,26.768,0,0,0,5.392-2.983,27.762,27.762,0,0,0,.688-6.106,27.762,27.762,0,0,0,6.106-.688,27.061,27.061,0,0,0,2.983-5.392,28.042,28.042,0,0,0,5.94,1.657A27.519,27.519,0,0,0,38.042,5a27.519,27.519,0,0,0,4.793,3.824,27.953,27.953,0,0,0,5.914-1.708,26.767,26.767,0,0,0,2.983,5.392,25.952,25.952,0,0,0,3.99.586,29.737,29.737,0,0,1,1.44,9.114Z" transform="translate(0.265 0.267)" fill="#fbd63b"/>
    <path id="Path_13259" data-name="Path 13259" d="M52.141,30.57v.637a16.57,16.57,0,0,1-33.141,0V30.57a16.57,16.57,0,0,1,33.141,0Z" transform="translate(2.737 2.738)" fill="#f8be31"/>
    <ellipse id="Ellipse_293" data-name="Ellipse 293" cx="16.558" cy="15.933" rx="16.558" ry="15.933" transform="translate(21.75 18.013)" fill="#feef79"/>
    <path id="Path_13260" data-name="Path 13260" d="M44.394,23,34.2,29.373,24,23l2.549,11.472h15.3Z" transform="translate(4.11 5.21)" fill="#d3b129"/>
    <path id="Path_13261" data-name="Path 13261" d="M33.648,22,26,34.746H41.3Z" transform="translate(4.66 4.936)" fill="#facc15"/>
    <path id="Path_13262" data-name="Path 13262" d="M67.242,32.391A26.142,26.142,0,0,1,63.8,28.21a25.493,25.493,0,0,1,1.593-5.1,1.3,1.3,0,0,0-.7-1.721,26.155,26.155,0,0,1-4.742-2.549,26.768,26.768,0,0,1-.548-5.353,1.275,1.275,0,0,0-1.275-1.275,26.041,26.041,0,0,1-5.353-.548,27.023,27.023,0,0,1-2.549-4.742,1.275,1.275,0,0,0-1.721-.7,26.665,26.665,0,0,1-5.1,1.593,26.309,26.309,0,0,1-4.168-3.4,1.275,1.275,0,0,0-1.823,0,26.27,26.27,0,0,1-4.206,3.4,26.933,26.933,0,0,1-5.1-1.593,1.275,1.275,0,0,0-1.683.7,25.569,25.569,0,0,1-2.549,4.729,26.041,26.041,0,0,1-5.353.548,1.275,1.275,0,0,0-1.275,1.275,26.768,26.768,0,0,1-.548,5.353,25.964,25.964,0,0,1-4.754,2.549,1.275,1.275,0,0,0-.688,1.657,25.914,25.914,0,0,1,1.555,5.175,26.181,26.181,0,0,1-3.4,4.168,1.275,1.275,0,0,0,0,1.81,26.768,26.768,0,0,1,3.4,4.219,25.493,25.493,0,0,1-1.593,5.1,1.3,1.3,0,0,0,.7,1.708,26.959,26.959,0,0,1,4.742,2.549,26.767,26.767,0,0,1,.548,5.354,1.275,1.275,0,0,0,1.275,1.275,27.379,27.379,0,0,1,4.079.344L17.046,69.929a1.275,1.275,0,0,0,1.861,1.53l5.6-3.416,2.1,6.22a1.268,1.268,0,0,0,2.4.025L34.33,59.656A25.492,25.492,0,0,1,37.39,62.2a1.25,1.25,0,0,0,1.835.038,26.475,26.475,0,0,1,3.046-2.549L47.6,74.327A1.268,1.268,0,0,0,50,74.3l2.1-6.22,5.6,3.416a1.275,1.275,0,0,0,1.861-1.53L54.049,54.748a27.378,27.378,0,0,1,4.079-.344A1.275,1.275,0,0,0,59.4,53.129a26.767,26.767,0,0,1,.548-5.353,25.9,25.9,0,0,1,4.754-2.549,1.275,1.275,0,0,0,.688-1.721,26.054,26.054,0,0,1-1.593-5.1,26.27,26.27,0,0,1,3.4-4.181,1.275,1.275,0,0,0,.038-1.835ZM27.855,70.006l-1.44-4.283a1.288,1.288,0,0,0-1.874-.688l-3.824,2.358,4.015-11.038a28.424,28.424,0,0,1,1.708,3.34,1.275,1.275,0,0,0,1.67.688A25.775,25.775,0,0,1,31.832,59.2Zm24.218-4.971a1.288,1.288,0,0,0-1.874.688l-1.44,4.283L44.821,59.2a28.042,28.042,0,0,1,3.722,1.185,1.275,1.275,0,0,0,1.428-.306,1.173,1.173,0,0,0,.255-.4,24.587,24.587,0,0,1,1.7-3.314l4.015,11.026Zm9.356-27.609a1.415,1.415,0,0,0-.191.548v.14a1.415,1.415,0,0,0,.013.293,30.107,30.107,0,0,0,1.275,5,29.406,29.406,0,0,0-4.5,2.626,1.275,1.275,0,0,0-.51.752,29.087,29.087,0,0,0-.688,5.1,28.947,28.947,0,0,0-5.1.688,1.275,1.275,0,0,0-.765.51,29.163,29.163,0,0,0-2.549,4.5,29.049,29.049,0,0,0-5.1-1.275.969.969,0,0,0-.2,0,1.275,1.275,0,0,0-.484.1l-.178.089-.408.28a29.663,29.663,0,0,0-3.735,2.8A29.661,29.661,0,0,0,34.585,56.7l-.408-.28a1.109,1.109,0,0,0-.535-.178h-.153l-.28.013A27.927,27.927,0,0,0,28.2,57.527a27.762,27.762,0,0,0-2.613-4.5,1.275,1.275,0,0,0-.765-.51,28.947,28.947,0,0,0-5.1-.688,29.087,29.087,0,0,0-.688-5.1,1.275,1.275,0,0,0-.51-.752,28.348,28.348,0,0,0-4.436-2.626,28.921,28.921,0,0,0,1.275-5.022c0-.064,0-.14,0-.2a1.134,1.134,0,0,0-.2-.676,27.749,27.749,0,0,0-3.123-4.143,28.526,28.526,0,0,0,3.148-4.13,1.415,1.415,0,0,0,.191-.548s0-.089,0-.14a1.275,1.275,0,0,0-.013-.28A29.916,29.916,0,0,0,14.089,23.2a29.405,29.405,0,0,0,4.5-2.626,1.275,1.275,0,0,0,.51-.752,28.921,28.921,0,0,0,.688-5.1,28.947,28.947,0,0,0,5.1-.688,1.275,1.275,0,0,0,.765-.5,29.9,29.9,0,0,0,2.6-4.448,29.049,29.049,0,0,0,5.035,1.275h.229a1.275,1.275,0,0,0,.484-.1l.178-.089a28.616,28.616,0,0,0,4.13-3.148,28.832,28.832,0,0,0,4.13,3.161,1.275,1.275,0,0,0,.535.191h.153a.7.7,0,0,0,.28-.013,27.927,27.927,0,0,0,5.009-1.275A28.437,28.437,0,0,0,50.965,13.6a1.275,1.275,0,0,0,.765.5,28.947,28.947,0,0,0,5.1.688,28.92,28.92,0,0,0,.688,5.1,1.275,1.275,0,0,0,.51.752,28.348,28.348,0,0,0,4.512,2.626,29.226,29.226,0,0,0-1.275,5.022,1.122,1.122,0,0,0,0,.217,1.275,1.275,0,0,0,.217.688,28.335,28.335,0,0,0,3.1,4.117,27.749,27.749,0,0,0-3.148,4.117Z" transform="translate(0 0)"/>
    <path id="Path_13263" data-name="Path 13263" d="M35.845,13A17.845,17.845,0,1,0,53.69,30.845,17.845,17.845,0,0,0,35.845,13Zm0,33.141a15.3,15.3,0,1,1,15.3-15.3A15.3,15.3,0,0,1,35.845,46.141Z" transform="translate(2.462 2.464)"/>
    <path id="Path_13264" data-name="Path 13264" d="M44,22.46l-5.7,3.633-2.664-4.448a1.275,1.275,0,0,0-2.192,0l-2.728,4.448L24.955,22.5a1.275,1.275,0,0,0-1.95,1.313l2.549,11.472a1.275,1.275,0,0,0,1.275,1.007h15.3A1.275,1.275,0,0,0,43.4,35.283l2.549-11.472a1.275,1.275,0,0,0-1.925-1.351Zm-1.275,3.824-1.2,5.379-1.95-3.416Zm-8.247-1.542,5.392,9H29.085Zm-5.1,3.505-2.027,3.365-1.2-5.379Z" transform="translate(3.83 4.666)"/>
  </g>
</svg>
