<svg xmlns="http://www.w3.org/2000/svg" width="20.102" height="20.047" viewBox="0 0 20.102 20.047">
  <g id="Group_52378" data-name="Group 52378" transform="translate(0 -0.64)">
    <g id="Group_52371" data-name="Group 52371" transform="translate(0 0.64)">
      <g id="Group_52370" data-name="Group 52370">
        <path id="Path_13372" data-name="Path 13372" d="M10.042.64A10.051,10.051,0,0,0,0,10.673a.463.463,0,0,0,.926,0A9.126,9.126,0,0,1,8.839,1.649l-.4.4A.465.465,0,0,0,9.1,2.7l1.268-1.286a.472.472,0,0,0,.139-.324A.463.463,0,0,0,10.042.64Z" transform="translate(0 -0.64)" fill="#fff"/>
      </g>
    </g>
    <g id="Group_52373" data-name="Group 52373" transform="translate(9.598 10.21)">
      <g id="Group_52372" data-name="Group 52372">
        <path id="Path_13373" data-name="Path 13373" d="M231.269,221.227a.463.463,0,0,0-.463.463,9.126,9.126,0,0,1-7.932,9.024l.416-.417a.465.465,0,0,0-.657-.657l-1.286,1.3a.426.426,0,0,0-.12.3.463.463,0,0,0,.463.463,10.06,10.06,0,0,0,10.042-10.014A.463.463,0,0,0,231.269,221.227Z" transform="translate(-221.227 -221.227)" fill="#fff"/>
      </g>
    </g>
    <g id="Group_52375" data-name="Group 52375" transform="translate(4.077 4.342)">
      <g id="Group_52374" data-name="Group 52374">
        <path id="Path_13374" data-name="Path 13374" d="M105.644,93.657l-.592-.555a5.164,5.164,0,0,0,0-1.6l.592-.565a.925.925,0,0,0,.176-1.166l-.74-1.268a.926.926,0,0,0-1.092-.435l-.787.231a5.681,5.681,0,0,0-1.407-.814l-.194-.8a.925.925,0,0,0-.925-.722H99.2a.925.925,0,0,0-.926.722l-.185.805a5.044,5.044,0,0,0-.713.333,4.209,4.209,0,0,0-.676.463l-.777-.222a.926.926,0,0,0-1.1.435l-.74,1.277a.981.981,0,0,0,.185,1.157l.592.555a4.767,4.767,0,0,0,0,1.61l-.592.555a.925.925,0,0,0-.176,1.148l.75,1.314a.925.925,0,0,0,1.064.389l.787-.222a5.349,5.349,0,0,0,1.388.814l.2.805a.926.926,0,0,0,.926.713h1.481a.972.972,0,0,0,.926-.722l.2-.8c.241-.1.481-.222.731-.342a5.166,5.166,0,0,0,.657-.463l.759.222a.972.972,0,0,0,1.111-.416l.74-1.286A.925.925,0,0,0,105.644,93.657ZM104.2,95.6l-1.018-.3a.472.472,0,0,0-.454.111,3.754,3.754,0,0,1-.666.509,8.123,8.123,0,0,1-.833.379.463.463,0,0,0-.287.324l-.287,1.046H99.175l-.25-1.027a.463.463,0,0,0-.3-.324A4.415,4.415,0,0,1,97.12,95.4a.463.463,0,0,0-.315-.12h-.13l-1.064.3-.722-1.3.777-.731a.463.463,0,0,0,.13-.444,3.86,3.86,0,0,1,0-1.721.463.463,0,0,0-.13-.435l-.787-.759.787-1.231,1.027.3a.472.472,0,0,0,.472-.1,3.785,3.785,0,0,1,.666-.555,5.2,5.2,0,0,1,.805-.361.463.463,0,0,0,.287-.324l.268-1.046h1.5l.259,1.027a.463.463,0,0,0,.305.324,4.7,4.7,0,0,1,1.509.925.463.463,0,0,0,.426.093l1.055-.278.722,1.3-.777.731a.463.463,0,0,0-.139.426,4.258,4.258,0,0,1,0,1.74.463.463,0,0,0,.139.435l.787.74Z" transform="translate(-93.968 -85.966)" fill="#fff"/>
      </g>
    </g>
    <g id="Group_52377" data-name="Group 52377" transform="translate(6.747 7.406)">
      <g id="Group_52376" data-name="Group 52376">
        <path id="Path_13375" data-name="Path 13375" d="M161.676,158.246a3.32,3.32,0,0,0-6.155,1.62,3.3,3.3,0,1,0,6.6,0A3.259,3.259,0,0,0,161.676,158.246Zm-3.323,3.943a2.416,2.416,0,0,1-1.907-2.323,2.342,2.342,0,0,1,.13-.75l1.777,1.027Zm-1.3-3.878a2.346,2.346,0,0,1,3.554,0l-1.777,1.027Zm2.24,3.876v-2.043l1.777-1.027a2.341,2.341,0,0,1,.139.759A2.378,2.378,0,0,1,159.288,162.187Z" transform="translate(-155.521 -156.599)" fill="#fff"/>
      </g>
    </g>
  </g>
</svg>
