<svg xmlns="http://www.w3.org/2000/svg" width="26.76" height="25.069" viewBox="0 0 26.76 25.069">
  <g id="Layer_x0020_1" transform="translate(-10.499 -15.312)">
    <g id="_318807048" transform="translate(10.499 15.312)">
      <path id="_319346312" d="M60.03,84.319l2.388,2.206a.29.29,0,0,1,.211.352,2.222,2.222,0,0,1-.249.6,2.327,2.327,0,0,1-.413.51c-.641.6-2.543.98-3.838,1.239-.317.064-.6.12-.784.163A.29.29,0,0,1,57,89.026c.05-.191.108-.441.173-.724.279-1.212.69-2.993,1.336-3.6a2.45,2.45,0,0,1,.543-.383,2.54,2.54,0,0,1,.63-.227A.291.291,0,0,1,60.03,84.319Z" transform="translate(-48.828 -72.013)" fill="#ffc107" fill-rule="evenodd"/>
      <path id="_319346504" d="M70.565,88l1.194,1.1a.145.145,0,0,1,.106.176,1.11,1.11,0,0,1-.124.3,1.163,1.163,0,0,1-.206.255,5.185,5.185,0,0,1-1.919.62c-.158.032-.3.06-.392.081a.145.145,0,0,1-.172-.181c.025-.1.054-.221.087-.362a4.431,4.431,0,0,1,.668-1.8A1.224,1.224,0,0,1,70.077,88a1.27,1.27,0,0,1,.315-.114A.145.145,0,0,1,70.565,88Z" transform="translate(-58.765 -75.14)" fill="#ffae06" fill-rule="evenodd"/>
      <path id="_319345952" d="M71.3,68.06l4.809,4.485a.29.29,0,0,1-.114.49l-2.8.973a.29.29,0,0,1-.293-.062h0l-3.045-2.84a.29.29,0,0,1-.065-.337l1.04-2.6a.29.29,0,0,1,.467-.105Z" transform="translate(-59.36 -58.734)" fill="#3b566a" fill-rule="evenodd"/>
      <path id="_319346168" d="M71.195,40.65a.29.29,0,0,1,.153.162,4.419,4.419,0,0,1,.169,2.607,4.543,4.543,0,0,1-1.335,2.268l-1.792,1.671a.29.29,0,0,1-.4,0l-1.71-1.6-9.939-9.27h0l-.015-.015a.29.29,0,0,1,.015-.41L58.135,34.4a5.035,5.035,0,0,1,2.415-1.238,5.345,5.345,0,0,1,2.762.157c.152.05,7.933,7.184,7.883,7.336Z" transform="translate(-48.217 -29.932)" fill="#ef5350" fill-rule="evenodd"/>
      <path id="_319345928" d="M75.737,24.8a10.278,10.278,0,0,1,1.186-3.281,11.95,11.95,0,0,1,2.272-2.868,12.538,12.538,0,0,1,5.375-2.972,10.474,10.474,0,0,1,5.8.08.29.29,0,0,1,.184.176h0a8.6,8.6,0,0,1,.086,5.442,11.385,11.385,0,0,1-3.194,5.026,12.68,12.68,0,0,1-3.07,2.115,12.07,12.07,0,0,1-3.5,1.1.29.29,0,0,1-.253-.087l-4.8-4.473a.29.29,0,0,1-.088-.261Z" transform="translate(-64.278 -15.312)" fill="#edf3f4" fill-rule="evenodd"/>
      <path id="_319345880" d="M103.441,42.035q.083.077.158.158a2.936,2.936,0,0,1,0,4.05q-.076.081-.158.158a3.431,3.431,0,0,1-4.622,0q-.083-.077-.158-.158a2.936,2.936,0,0,1,0-4.05q.076-.081.158-.158a3.431,3.431,0,0,1,4.622,0Z" transform="translate(-82.512 -36.605)" fill="#3b566a" fill-rule="evenodd"/>
      <g id="Group_51571" data-name="Group 51571" transform="translate(0 7.251)">
        <path id="_319346456" d="M17.345,56.684a.29.29,0,0,1,.4.425l-6.754,6.3a.29.29,0,0,1-.4-.425Z" transform="translate(-10.499 -56.607)" fill="#fff" fill-rule="evenodd"/>
        <path id="_319346288" d="M23.86,75.24a.29.29,0,1,1,.4.425L19.5,80.1a.29.29,0,1,1-.4-.425Z" transform="translate(-17.517 -71.904)" fill="#fff" fill-rule="evenodd"/>
        <path id="_319345904" d="M30.994,90.5a.29.29,0,1,1,.4.425l-3.377,3.15a.29.29,0,1,1-.4-.425Z" transform="translate(-24.535 -84.485)" fill="#fff" fill-rule="evenodd"/>
        <path id="_319346408" d="M83.7,118.57a.29.29,0,1,1,.4.425l-6.754,6.3a.29.29,0,1,1-.4-.425Z" transform="translate(-65.2 -107.626)" fill="#fff" fill-rule="evenodd"/>
        <path id="_318806544" d="M73.186,121.246a.29.29,0,0,1,.4.425l-4.755,4.435a.29.29,0,0,1-.4-.425Z" transform="translate(-58.182 -109.832)" fill="#fff" fill-rule="evenodd"/>
        <path id="_318806496" d="M63.294,120.627a.29.29,0,1,1,.4.425l-3.377,3.15a.29.29,0,1,1-.4-.425Z" transform="translate(-51.164 -109.321)" fill="#fff" fill-rule="evenodd"/>
        <path id="_318807168" d="M24.327,115.506a.29.29,0,0,1,.4.425l-3.653,3.407a.29.29,0,0,1-.4-.425Z" transform="translate(-18.811 -105.1)" fill="#fff" fill-rule="evenodd"/>
        <path id="_318807144" d="M20.206,135.456a.29.29,0,1,1,.4.425l-3.652,3.407a.29.29,0,0,1-.4-.425Z" transform="translate(-15.414 -121.547)" fill="#fff" fill-rule="evenodd"/>
      </g>
      <path id="_318807072" d="M132.413,18.91a6.319,6.319,0,0,0,2.13,1.306,6.694,6.694,0,0,0,1.556.369,8.424,8.424,0,0,0-.288-4.648h0a.29.29,0,0,0-.184-.176,10.268,10.268,0,0,0-5-.259,5.491,5.491,0,0,0,.39,1.434A5.786,5.786,0,0,0,132.413,18.91Z" transform="translate(-109.536 -15.312)" fill="#ef5350" fill-rule="evenodd"/>
      <path id="_318806712" d="M105.905,45.32q-.062-.066-.129-.129a2.855,2.855,0,0,0-3.831,0q-.067.063-.129.129a2.359,2.359,0,0,0,0,3.259q.062.066.129.129a2.855,2.855,0,0,0,3.831,0q.067-.063.129-.129a2.359,2.359,0,0,0,0-3.259Z" transform="translate(-85.244 -39.336)" fill="#b5d5f5" fill-rule="evenodd"/>
      <g id="Group_51572" data-name="Group 51572" transform="translate(15.921 5.117)">
        <path id="_318806664" d="M105.217,44.787a2.865,2.865,0,0,0-1.349-.333l-.12,0-2.576,2.576a2.367,2.367,0,0,0,.47,1.329Z" transform="translate(-101.172 -44.453)" fill="#fff" fill-rule="evenodd"/>
        <path id="_318807096" d="M108.844,54.205a2.865,2.865,0,0,0,1.349.333l.12,0,2.576-2.576a2.367,2.367,0,0,0-.47-1.33Z" transform="translate(-107.497 -49.546)" fill="#fff" fill-rule="evenodd"/>
      </g>
    </g>
  </g>
</svg>
