<svg xmlns="http://www.w3.org/2000/svg" width="15.913" height="18.283" viewBox="0 0 15.913 18.283">
  <path id="Path_13303" data-name="Path 13303" d="M12.92,12.3a2.986,2.986,0,0,0-2.213.98L5.78,10.227a2.981,2.981,0,0,0,0-2.17l4.927-3.052a2.992,2.992,0,1,0-.575-.927L5.2,7.129a2.993,2.993,0,1,0,0,4.025l4.927,3.051A2.992,2.992,0,1,0,12.92,12.3Zm-1.9-9.305a1.9,1.9,0,1,1,1.9,1.9,1.9,1.9,0,0,1-1.9-1.9Zm-8.026,8.05a1.9,1.9,0,1,1,1.9-1.9A1.9,1.9,0,0,1,2.992,11.043Zm8.026,4.247a1.9,1.9,0,1,1,1.9,1.9A1.9,1.9,0,0,1,11.018,15.291Zm0,0" transform="translate(0 0)" fill="#404040"/>
</svg>
