<svg xmlns="http://www.w3.org/2000/svg" width="26.1" height="15.656" viewBox="0 0 26.1 15.656">
  <path id="Path_13378" data-name="Path 13378" d="M10.194,11.854H18a2.881,2.881,0,0,1,5.448,0H24.1V8.1a.853.853,0,0,0-.85-.85H17.5a.75.75,0,0,1-.75-.75V2H3.894v.9H5.273a.75.75,0,0,1,0,1.5H3.894V5.852H7.5a.75.75,0,0,1,0,1.5h-3.6v4.5h.853a2.881,2.881,0,0,1,5.448,0ZM2.393,4.4h-.9a.75.75,0,0,1,0-1.5h.9V1.25A.75.75,0,0,1,3.143.5C4.292.5,16.911.5,16.911.5a5.587,5.587,0,0,1,4.9,2.783l1.471,2.469A2.354,2.354,0,0,1,25.6,8.1v4.5a.75.75,0,0,1-.75.75H23.543a2.877,2.877,0,0,1-5.637,0H10.289a2.877,2.877,0,0,1-5.637,0H3.143a.75.75,0,0,1-.75-.75V10.353H.743a.75.75,0,0,1,0-1.5H2.393v-1.5H.743a.75.75,0,0,1,0-1.5H2.393Zm19.3,7.405a1.376,1.376,0,1,1-2.348.973,1.376,1.376,0,0,1,2.348-.973Zm-.161-6.055H18.249V2.2a4.085,4.085,0,0,1,2.274,1.847ZM8.443,11.806a1.376,1.376,0,1,1-2.348.973,1.376,1.376,0,0,1,2.348-.973Zm0,0" transform="translate(0.248 -0.25)" fill="#fff" stroke="#3e3e3e" stroke-width="0.5" fill-rule="evenodd"/>
</svg>
