<svg xmlns="http://www.w3.org/2000/svg" width="10.969" height="11.085" viewBox="0 0 10.969 11.085">
  <g id="Layer_51" data-name="Layer 51" transform="translate(-3.136 -3)">
    <path id="Path_13175" data-name="Path 13175" d="M8.261,6.364a.426.426,0,1,0,.6-.6l-2.5-2.5a.426.426,0,0,0-.6,0l-2.5,2.5a.426.426,0,1,0,.6.6L5.636,4.592v9.145a.426.426,0,0,0,.853,0V4.592Z" transform="translate(0 -0.078)" fill="#404040"/>
    <path id="Path_13176" data-name="Path 13176" d="M20.864,10.8a.426.426,0,0,0-.6,0l-1.772,1.772V3.426a.426.426,0,0,0-.853,0v9.145L15.864,10.8a.426.426,0,1,0-.6.6l2.5,2.5a.426.426,0,0,0,.6,0l2.5-2.5A.426.426,0,0,0,20.864,10.8Z" transform="translate(-6.884)" fill="#404040"/>
  </g>
</svg>
