<svg xmlns="http://www.w3.org/2000/svg" width="18.145" height="17.177" viewBox="0 0 18.145 17.177">
  <g id="Group_52100" data-name="Group 52100" transform="translate(0 -8.601)">
    <g id="Group_52099" data-name="Group 52099" transform="translate(0 8.601)">
      <g id="Group_52098" data-name="Group 52098" transform="translate(0 0)">
        <path id="Path_13270" data-name="Path 13270" d="M136.059,83.206a.369.369,0,0,0-.248-.158c-.518,0-4.973-.18-4.973-5.355a.293.293,0,1,0-.585,0c0,5.175-4.455,5.355-4.95,5.355a.255.255,0,0,0-.18.068c-.045.022-.068.067-.09.09a.334.334,0,0,0,0,.293.312.312,0,0,0,.27.158h.023c.518,0,4.95.18,4.95,5.355a.293.293,0,1,0,.585,0c0-5.153,4.433-5.355,4.95-5.355a.343.343,0,0,0,.27-.158A.277.277,0,0,0,136.059,83.206Zm-5.513,3.6a5.136,5.136,0,0,0-3.51-3.465,5.136,5.136,0,0,0,3.51-3.465,5.136,5.136,0,0,0,3.51,3.465A5.136,5.136,0,0,0,130.546,86.806Z" transform="translate(-117.969 -73.531)"/>
        <path id="Path_13271" data-name="Path 13271" d="M52.278,12.426a.3.3,0,0,0,.293-.315.3.3,0,0,0-.293-.293,2.666,2.666,0,0,1-2.7-2.925.293.293,0,0,0-.585,0,2.666,2.666,0,0,1-2.7,2.925H46.27a.294.294,0,0,0-.27.293.3.3,0,0,0,.293.293,2.656,2.656,0,0,1,2.7,2.925.3.3,0,0,0,.293.293.259.259,0,0,0,.27-.27,2.666,2.666,0,0,1,2.7-2.925h.023Zm-3.015,1.283a3.018,3.018,0,0,0-1.62-1.6,3.027,3.027,0,0,0,1.62-1.6,3.018,3.018,0,0,0,1.62,1.6A3.027,3.027,0,0,0,49.263,13.709Z" transform="translate(-43.412 -8.601)"/>
        <path id="Path_13272" data-name="Path 13272" d="M6.278,192.219a2.666,2.666,0,0,1-2.7-2.925.293.293,0,1,0-.585,0,2.666,2.666,0,0,1-2.7,2.925H.27a.294.294,0,0,0-.27.293.3.3,0,0,0,.293.293,2.656,2.656,0,0,1,2.7,2.925.3.3,0,0,0,.293.293c.135.045.27-.09.27-.27a2.666,2.666,0,0,1,2.7-2.925h.023a.3.3,0,0,0,.293-.315A.3.3,0,0,0,6.278,192.219Zm-3.015,1.913a3.092,3.092,0,0,0-1.62-1.6,3.027,3.027,0,0,0,1.62-1.6,3.018,3.018,0,0,0,1.62,1.6A3.027,3.027,0,0,0,3.263,194.131Z" transform="translate(0 -178.853)"/>
      </g>
    </g>
  </g>
</svg>
