<svg xmlns="http://www.w3.org/2000/svg" width="61" height="60" viewBox="0 0 61 60">
  <g id="Group_52431" data-name="Group 52431" transform="translate(-733 -7948)">
    <rect id="Rectangle_31992" data-name="Rectangle 31992" width="61" height="60" rx="30" transform="translate(733 7948)" fill="#efefef"/>
    <g id="Group_52430" data-name="Group 52430" transform="translate(718.718 7960.031)">
      <g id="Group_52429" data-name="Group 52429" transform="translate(33.727 2.531)">
        <path id="Path_13411" data-name="Path 13411" d="M114.138,213.5a4.777,4.777,0,0,0-2.483,8.9,4.7,4.7,0,0,1-.765-2.509,4.815,4.815,0,0,1,4.846-4.859,5,5,0,0,1,1.524.24v-5.358a10.537,10.537,0,0,0-1.524-.113h-.073v3.94A5,5,0,0,0,114.138,213.5Z" transform="translate(-107.928 -197.433)" fill="#f00044"/>
        <path id="Path_13412" data-name="Path 13412" d="M337.624,24H336.2a8.185,8.185,0,0,0,3.1,4.932A8.244,8.244,0,0,1,337.624,24Z" transform="translate(-319.733 -24)" fill="#f00044"/>
        <path id="Path_13413" data-name="Path 13413" d="M114.838,144.446a8.291,8.291,0,0,1-1.531-.146l-8.187,1.052-8.586,21.705a10.537,10.537,0,0,1-1.524.113,10.109,10.109,0,0,1-6.21-2.1,9.02,9.02,0,0,0,.646.7,10.143,10.143,0,0,0,7.168,2.935,10.537,10.537,0,0,0,1.524-.113,10.1,10.1,0,0,0,5.644-2.822,9.906,9.906,0,0,0,2.969-7.042l-.1-11.841a13.075,13.075,0,0,0,2.969,1.731,13.369,13.369,0,0,0,5.218,1.058" transform="translate(-88.8 -136.293)" fill="#f00044"/>
      </g>
      <path id="Path_13414" data-name="Path 13414" d="M34.352,191.279a10.129,10.129,0,0,1,7.109-2.949v-1.418a10.537,10.537,0,0,0-1.524-.113,10.119,10.119,0,0,0-7.182,2.949,9.947,9.947,0,0,0,.013,14.164,10.138,10.138,0,0,0,.952.832,9.914,9.914,0,0,1-2.33-6.383A10.035,10.035,0,0,1,34.352,191.279Z" transform="translate(0 -173.433)" fill="#08fff9"/>
      <path id="Path_13415" data-name="Path 13415" d="M387.739,101.175V99.751h-.013A8.123,8.123,0,0,1,382.8,98.1,8.131,8.131,0,0,0,387.739,101.175Z" transform="translate(-329.505 -90.637)" fill="#08fff9"/>
      <path id="Path_13416" data-name="Path 13416" d="M148.607,29.7a5,5,0,0,0,1.8-.233,4.8,4.8,0,0,0,3.321-4.546L153.732,17V2.531h3.807A8.292,8.292,0,0,1,157.38,1h-5.245V15.463l-.007,7.921a4.8,4.8,0,0,1-3.321,4.546,4.724,4.724,0,0,1-1.8.233,4.883,4.883,0,0,1-2.21-.672,4.856,4.856,0,0,0,3.807,2.21Z" transform="translate(-107.346)" fill="#08fff9"/>
      <path id="Path_13417" data-name="Path 13417" d="M63.863,54.764a10.1,10.1,0,0,0,5.644-2.822A9.906,9.906,0,0,0,72.476,44.9L72.45,33.059a13.075,13.075,0,0,0,2.969,1.731,13.369,13.369,0,0,0,5.218,1.058v-3.84A8.131,8.131,0,0,1,75.7,28.932,8.154,8.154,0,0,1,72.6,24H68.789V38.463l-.007,7.921a4.8,4.8,0,0,1-3.321,4.546,4.723,4.723,0,0,1-1.8.233,4.856,4.856,0,0,1-3.807-2.2,4.777,4.777,0,0,1,2.483-8.9,5,5,0,0,1,1.524.24V36.36a10.129,10.129,0,0,0-7.109,2.949A9.969,9.969,0,0,0,53.8,46.384a9.842,9.842,0,0,0,2.33,6.383,10.123,10.123,0,0,0,6.21,2.1,9.67,9.67,0,0,0,1.524-.106Z" transform="translate(-22.403 -21.469)"/>
    </g>
  </g>
</svg>
