<svg id="Group_34" data-name="Group 34" xmlns="http://www.w3.org/2000/svg" width="12.139"
    height="12.139" viewBox="0 0 12.139 12.139">
    <g id="Group_20" data-name="Group 20" transform="translate(5.599 2.816)">
        <g id="Group_19" data-name="Group 19">
            <path id="Path_5" data-name="Path 5"
                d="M238.8,123.1l-1.693-1.269v-2.586a.47.47,0,0,0-.94,0v2.821a.469.469,0,0,0,.188.376l1.881,1.41a.47.47,0,0,0,.564-.752Z"
                transform="translate(-236.169 -118.779)" fill="#171717" />
        </g>
    </g>
    <g id="Group_22" data-name="Group 22">
        <g id="Group_21" data-name="Group 21">
            <path id="Path_6" data-name="Path 6"
                d="M6.07,0a6.07,6.07,0,1,0,6.07,6.07A6.076,6.076,0,0,0,6.07,0Zm0,11.2A5.129,5.129,0,1,1,11.2,6.07,5.136,5.136,0,0,1,6.07,11.2Z"
                fill="#171717" />
        </g>
    </g>
</svg>