<svg xmlns="http://www.w3.org/2000/svg" width="58" height="60" viewBox="0 0 58 60">
  <g id="Group_52433" data-name="Group 52433" transform="translate(-645 -7948)">
    <rect id="Rectangle_92" data-name="Rectangle 92" width="58" height="60" rx="29" transform="translate(645 7948)" fill="red"/>
    <g id="Group_137" data-name="Group 137" transform="translate(658.259 7966.979)">
      <path id="Path_85" data-name="Path 85" d="M30.833,3.449A3.944,3.944,0,0,0,28.059.674C25.6,0,15.741,0,15.741,0S5.886,0,3.423.649a4.025,4.025,0,0,0-2.775,2.8A41.562,41.562,0,0,0,0,11.021a41.409,41.409,0,0,0,.648,7.572,3.945,3.945,0,0,0,2.775,2.775c2.489.674,12.318.674,12.318.674s9.854,0,12.318-.649a3.944,3.944,0,0,0,2.775-2.775,41.563,41.563,0,0,0,.648-7.572,39.45,39.45,0,0,0-.649-7.6Zm0,0" transform="translate(0 0)" fill="#fff"/>
      <path id="Path_86" data-name="Path 86" d="M204.969,111.924l8.194-4.72-8.194-4.72Zm0,0" transform="translate(-192.366 -96.183)" fill="red"/>
    </g>
  </g>
</svg>
